<?xml version="1.0" encoding="UTF-8" standalone="no"?><!DOCTYPE svg PUBLIC "-//W3C//DTD SVG 1.1//EN" "http://www.w3.org/Graphics/SVG/1.1/DTD/svg11.dtd"><svg width="100%" height="100%" viewBox="0 0 123 123" version="1.1" xmlns="http://www.w3.org/2000/svg" xmlns:xlink="http://www.w3.org/1999/xlink" xml:space="preserve" xmlns:serif="http://www.serif.com/" style="fill-rule:evenodd;clip-rule:evenodd;stroke-linejoin:round;stroke-miterlimit:2;"><clipPath id="_clip1"><rect x="1.46" y="0" width="119.959" height="122.88"/></clipPath><g clip-path="url(#_clip1)"><path d="M66.663,14.034c0.471,-0.622 0.663,-0.823 1.337,-1.303c1.459,1.339 2.945,2.902 4.351,4.321c2.192,2.174 4.367,4.364 6.524,6.569l17.774,17.81c4.379,4.332 8.725,8.694 13.037,13.086l3.328,3.367c0.702,0.697 1.831,1.751 2.429,2.476c-1.059,1.423 -3.826,4.131 -5.17,5.516l-9.338,9.712l-39.534,41.17c-2.338,-2.166 -4.618,-4.806 -6.852,-7.114c-7.702,-7.956 -15.356,-15.971 -23.02,-23.961c-5.524,-5.684 -11.011,-11.4 -16.459,-17.15c-2.081,-2.198 -5.75,-5.83 -7.515,-8.082c0.385,-0.853 6.152,-6.328 7.195,-7.373l23.225,-23.129l10.151,-10.289c2.008,-2.063 4.82,-5.082 6.965,-6.97c0.428,0.633 0.612,0.904 1.233,1.414c-1.059,0.874 -2.156,2.125 -3.163,3.12l-7.865,7.906l-25.251,25.237c-2.282,2.313 -4.581,4.611 -6.898,6.892c-0.923,0.921 -2.344,2.5 -3.306,3.244c0.648,0.463 1.947,1.894 2.544,2.509c1.92,1.982 3.757,4.047 5.658,6.05l19.244,20.108l17.492,18.173l4.533,4.676c0.563,0.581 1.687,1.639 2.111,2.253c0.612,-0.909 4.219,-4.459 5.204,-5.495l14.538,-15.134l10.776,-11.263c1.696,-1.761 3.548,-3.545 5.203,-5.308l8.422,-8.916c2.386,-2.544 4.929,-5.333 7.463,-7.738c-4.138,-4.126 -8.247,-8.278 -12.326,-12.457c-0.958,-0.963 -1.923,-1.911 -2.898,-2.859c-0.7,-0.68 -1.428,-1.579 -2.185,-2.178c1.652,2.997 1.722,7.52 0.657,10.706c-1.614,4.827 -6.014,8.649 -10.664,10.891c-4.372,2.108 -8.567,2.452 -13.313,2.788c8.13,1.432 17.828,1.248 24.714,-3.428c1.29,-0.876 4.435,-3.341 5.108,-4.667l0.167,-0.061l0.063,0.106c-1.119,3.6 -5.902,8.145 -9.368,9.891c-7.436,3.745 -16.588,2.362 -24.313,0.223c-0.275,-0.076 -0.597,-0.252 -0.859,-0.222c1.145,0.631 3.523,1.155 4.839,1.545c6.268,1.858 12.292,3.203 18.795,1.458c3.818,-1.024 8.102,-3.205 10.627,-6.207l0.219,-0.075l0.087,0.114c-0.25,0.656 -0.872,1.319 -1.316,1.895c-6.483,8.415 -16.907,10.393 -26.883,6.954c-6.426,-2.214 -14.546,-7.362 -21.114,-7.747c4.956,1.44 10.684,4.613 13.187,9.076c1.563,2.773 1.903,6.021 0.947,9.032c-0.957,2.923 -3.116,5.357 -5.991,6.749c-4.658,2.285 -11.091,1.024 -13.562,-3.656c-2.09,-3.959 0.188,-9.314 5.607,-7.713c0.737,0.218 1.623,1.213 1.435,2.014c-0.213,0.088 -0.214,0.103 -0.449,-0.019c-1.331,-0.69 -2.539,-1.062 -3.203,0.664c-0.661,1.719 0.744,3.425 2.473,3.928c2.859,0.773 5.407,-0.943 6.156,-3.552c0.589,-2.049 0.289,-3.944 -0.828,-5.782c-2.351,-3.738 -4.851,-5.2 -9.213,-6.378c-0.121,-0.033 -0.234,-0.035 -0.356,-0.043c0.183,0.32 6.265,2.337 5.894,3.566c-0.584,0.265 -1.543,-0.372 -2.196,-0.609c-1.422,-0.504 -2.877,-0.916 -4.357,-1.234c-3.878,-0.827 -7.923,-0.943 -11.731,-1.362c-6.484,-0.714 -12.981,-2.243 -18.588,-5.455c-0.717,-0.411 -1.27,-0.843 -1.791,-1.479l0.107,-0.093c-0.034,-0.005 0.655,0.126 0.544,0.121c4.477,0.191 9.035,-0.115 13.533,0.041c3.545,0.123 7.091,0.386 10.639,0.467c0.446,0.01 1.084,0.214 1.593,0.26c1.294,0.22 3.084,0.428 4.381,0.511c-1.376,-0.443 -2.396,-0.701 -3.798,-0.976c-0.774,-0.264 -2.4,-0.592 -3.224,-0.76c-4.736,-0.961 -10.123,-1.78 -14.962,-1.694c-0.723,-0.003 -1.429,0.023 -2.122,-0.176c1.562,-1.536 18.965,-0.066 21.994,0.636c4.597,1.065 9.717,0.963 14.163,1.689c0.352,0.044 0.704,0.079 1.057,0.106c3.932,0.3 8.704,-0.073 12.62,-0.677c5.193,-0.921 9.942,-2.322 14.056,-5.617c5.453,-4.368 7.308,-12.018 2.398,-17.413c-3.475,-3.818 -10.639,-4.69 -14.645,-1.138c-2.188,1.94 -3.365,6.157 -0.757,8.318c0.619,0.514 1.048,0.936 1.939,0.929c-0.015,-0.157 -0.761,-0.519 -0.97,-0.702c-2.412,-2.116 -2.024,-5.572 0.087,-7.719c1.795,-1.825 3.704,-2.301 6.258,-2.4c2.506,-0.084 4.942,0.794 6.757,2.436c2.154,1.936 3.426,4.594 3.543,7.407c0.11,3.379 -1.346,6.724 -3.817,9.124c-5.622,5.46 -15.052,6.709 -22.714,6.874c-5.02,-0.016 -10.025,-0.411 -14.888,-1.66c-1.974,-0.54 -4.082,-0.616 -6.101,-0.969c-3.066,-0.465 -6.069,-0.908 -9.178,-0.996c-0.654,-0.129 -1.464,-0.184 -2.107,-0.317c-4.638,-0.958 -9.179,-1.131 -13.904,-0.676c-0.583,0.056 -3.369,0.348 -3.791,0.21l-0.003,-0.16c0.429,-0.497 2.305,-1.281 3.012,-1.577c3.839,-1.607 8.562,-2.9 12.736,-3.297c2.974,-0.283 6.087,-0.177 9.038,-0.365c2.583,-0.172 5.141,-0.589 7.637,-1.244c4.003,-1.027 8.352,-3.063 10.581,-6.591c1.605,-2.541 1.461,-6.141 -1.567,-7.687c-1.091,-0.57 -2.38,-0.693 -3.569,-0.34c-1.782,0.526 -2.594,1.951 -2.07,3.645c0.59,1.903 3.159,0.22 3.611,0.427c-0.002,0.44 -0.76,1.366 -1.046,1.734c-1.98,0.657 -3.748,0.879 -5.368,-0.8c-1.001,-1.038 -1.442,-2.662 -1.257,-4.067c1.034,-7.86 12.496,-8.204 16.833,-2.731c1.897,2.385 2.748,4.938 2.312,7.843c-1.723,11.486 -15.392,12.68 -24.989,14.52c-0.412,0.079 -3.225,0.571 -3.383,0.69c0.927,0.376 8.025,-1.199 9.684,-1.302c7.86,-0.494 15.744,0.453 23.583,-0.121c2.017,-0.148 4.823,-0.895 6.846,-1.287c0.751,-0.145 1.824,-0.836 2.733,-1.042l0.096,0.063c-0.067,0.087 -0.152,0.201 -0.247,0.279c-2.704,2.211 -5.966,3.31 -9.344,4.224c-0.44,0.119 -1.067,0.067 -1.597,0.198c-1.843,0.455 -3.753,0.798 -5.653,0.941c-1.664,0.125 -3.572,0.047 -5.262,0.017c-0.741,-0.153 -4.86,-0.406 -5.628,-0.378c-1.642,-0.183 -3.966,-0.522 -5.546,-0.369c0.272,0.242 5.372,0.675 5.999,0.674c1.878,0.243 3.199,0.329 5.094,0.457c1.017,0.267 3.01,0.247 4.091,0.268c6.099,0.113 12.352,-0.842 17.738,-3.691c4.834,-2.587 9.395,-8.58 6.228,-13.852c-1.815,-3.021 -5.573,-4.271 -8.825,-2.484c-1.753,0.963 -2.869,3.345 -1.74,5.083c0.402,0.623 1.058,1.063 1.811,1.214c1.679,0.321 2.576,-1.144 3.064,-1.152c0.151,0.277 0.139,0.362 0.036,0.665c-0.888,2.636 -4.138,3.473 -6.648,2.542c-3.998,-1.484 -5.172,-6.388 -3.698,-9.906c2.677,-6.388 10.76,-8.284 17.03,-5.857c0.128,0.05 0.256,0.1 0.384,0.152c-0.758,-1.036 -4.088,-4.121 -5.145,-5.175l-11.432,-11.587c-0.99,-0.985 -1.995,-1.958 -3.014,-2.916c-0.477,-0.449 -1.273,-1.14 -1.678,-1.61Zm-7.921,59.231c-1.785,-1.401 -5.576,-3.161 -7.926,-3.105c2.932,0.657 5.308,1.622 7.776,3.283c0.672,0.478 1.294,1.015 1.858,1.604c3.77,3.888 4.13,9.377 -0.01,13.08c-3.909,3.496 -11.53,1.633 -11.021,-4.051c0.086,-0.962 1.114,-1.926 1.839,-2.499c-2.904,1.316 -3.115,4.338 -1.119,6.498c3.311,3.585 9.571,2.732 12.263,-1.186c3.284,-4.781 1.059,-10.575 -3.66,-13.624Zm0.87,-23.496c-0.905,0.828 -1.955,1.521 -2.968,2.233c-3.625,1.878 -7.044,3.011 -11.145,3.607c-0.448,0.065 -2.198,0.27 -2.496,0.395c-1.224,0.096 -3.604,0.234 -4.715,0.458c-1.293,0.033 -6.207,0.285 -7.397,0.603c1.084,0.163 7.391,-0.197 8.662,-0.385c1.022,-0.127 2.195,-0.205 3.228,-0.282c4.22,-0.243 10.442,-2.129 14.01,-4.22c1.037,-0.663 2.165,-1.43 3.017,-2.291c1.743,-1.789 3.095,-4.258 3.021,-6.743c-0.047,-2.044 -0.961,-3.984 -2.536,-5.38c-2.073,-1.838 -4.552,-2.388 -7.291,-1.79c-3.295,0.719 -6.046,4.912 -2.832,7.361c0.256,0.195 0.475,0.397 0.812,0.372c-0.045,-0.216 -0.727,-0.556 -1.001,-0.934c-1.573,-2.181 -0.203,-4.94 2.097,-6.033c3.568,-1.707 8.002,0.18 9.566,3.539c1.575,3.385 0.415,6.819 -2.031,9.489Zm-19.581,17.003c0.637,0.197 1.111,0.121 1.755,0.227c1.636,0.269 3.423,0.415 5.03,0.745c1.352,0.278 2.795,0.819 4.123,1.214c0.289,0.086 1.48,0.512 1.695,0.531c-1.999,-1.702 -9.93,-2.932 -12.602,-2.717Zm-11.907,-0.548c0.513,0.448 11.061,1.045 11.706,0.675l-0.014,-0.131c-0.7,-0.146 -1.801,-0.129 -2.548,-0.2c-1.815,-0.173 -3.662,-0.25 -5.485,-0.308c-0.984,-0.032 -2.701,-0.132 -3.658,-0.037Z" style="fill:#fff07f;fill-rule:nonzero;"/><path d="M58.742,73.265c4.719,3.049 6.944,8.844 3.66,13.624c-2.692,3.918 -8.952,4.771 -12.263,1.186c-1.995,-2.16 -1.785,-5.182 1.119,-6.498c-0.725,0.573 -1.752,1.538 -1.839,2.499c-0.51,5.684 7.111,7.546 11.021,4.051c4.14,-3.703 3.78,-9.192 0.01,-13.08c-0.564,-0.589 -1.187,-1.126 -1.858,-1.604l0.15,-0.177Z" style="fill:#fff07f;fill-opacity:0.02;fill-rule:nonzero;"/><path d="M59.612,49.768c2.446,-2.669 3.606,-6.104 2.031,-9.489c-1.563,-3.359 -5.998,-5.247 -9.566,-3.539c-2.3,1.093 -3.67,3.852 -2.097,6.033c0.275,0.378 0.956,0.718 1.001,0.934c-0.337,0.025 -0.556,-0.177 -0.812,-0.372c-3.214,-2.449 -0.463,-6.642 2.832,-7.361c2.739,-0.598 5.218,-0.048 7.291,1.79c1.575,1.396 2.489,3.336 2.536,5.38c0.075,2.484 -1.278,4.954 -3.021,6.743l-0.195,-0.118Z" style="fill:#fff07f;fill-opacity:0.02;fill-rule:nonzero;"/><path d="M28.124,66.224c0.958,-0.096 2.674,0.005 3.658,0.037c1.823,0.059 3.671,0.135 5.485,0.308c0.748,0.071 1.848,0.054 2.548,0.2l0.014,0.131c-0.645,0.369 -11.193,-0.227 -11.706,-0.675Z" style="fill:#fff07f;fill-opacity:0.04;fill-rule:nonzero;"/><path d="M43.003,56.004c0.298,-0.126 2.047,-0.33 2.496,-0.395c4.101,-0.597 7.521,-1.729 11.145,-3.607l0.146,0.176c-3.568,2.091 -9.79,3.978 -14.01,4.22c-0.268,0.002 -0.456,0.029 -0.699,-0.075c0.327,-0.134 0.582,-0.213 0.922,-0.319Z" style="fill:#fff07f;fill-opacity:0.08;fill-rule:nonzero;"/><path d="M39.552,56.68c-1.27,0.188 -7.577,0.548 -8.662,0.385c1.19,-0.318 6.104,-0.57 7.397,-0.603c0.314,0.026 1.237,0.005 1.424,0.079l-0.16,0.139Z" style="fill:#fff07f;fill-opacity:0.04;fill-rule:nonzero;"/><path d="M70.866,9.616c0.667,0.294 25.591,25.642 27.896,27.955l14.463,14.508c2.607,2.611 5.663,5.513 8.093,8.202c-0.442,0.711 -3.619,3.924 -4.455,4.811l-11.801,12.408l-43.632,45.346c-0.76,-0.649 -2.025,-2.028 -2.756,-2.778c-1.551,-1.57 -3.089,-3.151 -4.613,-4.744l-12.297,-12.797l-21.994,-22.965c-6.179,-6.317 -12.283,-12.699 -18.311,-19.147c0.584,-1.003 4.926,-5.112 6.009,-6.177l7.656,-7.622c1.111,-1.085 2.161,-2.243 3.265,-3.338l18.219,-18.185l7.629,-7.687c1.099,-1.101 2.385,-2.23 3.407,-3.342c1.421,-1.518 2.829,-2.958 4.268,-4.452c0.478,0.351 2.156,1.891 2.078,2.148c-0.163,0.535 -4.13,4.333 -4.64,4.845l-8.134,8.213l-22.315,22.298l-7.704,7.676c-1.019,0.997 -4.842,4.635 -5.494,5.61c1.399,1.749 3.363,3.581 4.92,5.238c1.919,2.04 3.869,4.061 5.792,6.096l30.933,32.259l8.407,8.793l3.274,3.403c0.8,0.82 1.647,1.609 2.365,2.491c0.904,-1.074 2.024,-2.179 3.002,-3.212c2.395,-2.531 4.822,-5.035 7.279,-7.512l15.656,-16.257l16.298,-17.037l7.817,-8.197c1.871,-1.96 3.912,-4.163 5.85,-6.046c-5.206,-5.299 -10.446,-10.568 -15.721,-15.804l-17.592,-17.665c-3.273,-3.256 -6.52,-6.536 -9.74,-9.839c-1.468,-1.481 -4.072,-3.95 -5.34,-5.495c0.593,-0.75 1.262,-1.347 1.96,-2.005Z" style="fill:#fff07f;fill-rule:nonzero;"/><path d="M61.387,0c0.465,0.364 2.059,2.05 2.535,2.529l5.767,5.84c-2.448,2.497 -6.047,5.823 -8.239,8.371c-0.513,-0.257 -7.489,-7.509 -8.259,-8.382c0.543,-0.479 1.038,-0.994 1.537,-1.514c2.225,-2.311 4.327,-4.625 6.66,-6.844Zm-4.884,8.415c0.685,0.67 4.451,4.686 4.912,4.915c1.536,-1.79 3.429,-3.377 4.782,-4.967c-1.027,-0.85 -4.111,-4.438 -4.873,-4.895c-0.592,0.716 -4.063,4.393 -4.704,4.86l-0.118,0.087Z" style="fill:#fff07f;fill-rule:nonzero;"/><path d="M61.307,5.194c0.32,0.101 2.828,2.754 3.177,3.171c-0.77,0.889 -2.436,2.461 -2.956,3.336c-0.552,-0.334 -2.777,-2.681 -3.304,-3.246c1.038,-1.078 2.066,-2.165 3.083,-3.261Z" style="fill:#fff07f;fill-rule:nonzero;"/><path d="M53.974,48.976c-0.166,0.572 -1.873,1.336 -2.459,1.621c-2.571,1.249 -7.281,2.796 -10.14,2.885c-6.346,0.197 -12.458,-0.587 -18.705,1.068c-1.466,0.389 -2.68,0.784 -4.108,1.241c-0.048,-0.178 -0.031,-0.122 -0.002,-0.318c0.627,-0.645 3.469,-1.958 4.373,-2.297c4.771,-1.787 9.657,-2.627 14.791,-2.539c3.218,0.055 6.427,0.168 9.643,-0.064c2.277,-0.164 4.565,-1.228 6.608,-1.597Z" style="fill:#fff07f;fill-rule:nonzero;"/><path d="M65.162,64.394c7.662,-0.165 17.092,-1.414 22.714,-6.874c2.471,-2.4 3.927,-5.745 3.817,-9.124c-0.117,-2.813 -1.388,-5.471 -3.543,-7.407c-1.815,-1.642 -4.251,-2.52 -6.757,-2.436c-2.554,0.098 -4.463,0.575 -6.258,2.4c-2.112,2.147 -2.499,5.604 -0.087,7.719c0.209,0.183 0.954,0.545 0.97,0.702c-0.891,0.008 -1.32,-0.415 -1.939,-0.929c-2.608,-2.161 -1.431,-6.378 0.757,-8.318c4.006,-3.553 11.17,-2.68 14.645,1.138c4.91,5.395 3.055,13.045 -2.398,17.413c-4.114,3.295 -8.863,4.696 -14.056,5.617c-3.917,0.604 -8.688,0.977 -12.62,0.677c-0.353,-0.027 -0.706,-0.062 -1.057,-0.106c0.026,-0.034 0.198,-0.206 0.208,-0.209c1.389,-0.309 4.43,-0.053 5.605,-0.262Zm-2.195,0.272c-0.557,-0.071 -1.521,-0.07 -2.079,0c0.489,0.038 1.618,0.093 2.079,-0Z" style="fill:#fff07f;fill-opacity:0.01;fill-rule:nonzero;"/><path d="M74.082,77.861c-0.007,-0.209 -0.017,-0.125 0.096,-0.328c0.206,0.044 0.337,0.055 0.547,0.054c1.02,0.204 1.938,0.475 2.937,0.686c3.811,0.802 6.326,1.181 10.225,0.882c-4.714,2.163 -9.554,1.508 -13.806,-1.294Z" style="fill:#fff07f;fill-rule:nonzero;"/><path d="M36.775,74.909c0.798,-0.024 1.865,0.101 2.756,0.175c2.289,0.19 4.733,0.275 6.679,1.6c0.253,0.172 0.355,0.344 0.377,0.599c-1.931,-0.517 -3.481,-0.625 -5.368,-0.953c-0.885,-0.154 -3.731,-0.929 -4.52,-1.226l0.075,-0.195Z" style="fill:#fff07f;fill-rule:nonzero;"/><path d="M68.292,54.481c0.466,-0.02 1.635,-0.119 1.994,0.1l-0.058,0.122c-1.515,0.908 -3.077,0.95 -4.78,0.994c-0.853,-0.016 -1.504,-0.069 -2.355,-0.152c1.628,-0.446 3.5,-0.934 5.199,-1.063Z" style="fill:#fff07f;fill-rule:nonzero;"/><path d="M43.603,47.244c0.599,-0.024 1.852,-0.136 2.371,0.051l0.048,0.123c-0.48,0.518 -2.033,0.793 -2.745,0.894c-1.337,0.022 -1.899,-0.026 -3.223,-0.248c1.453,-0.185 1.956,-0.7 3.55,-0.82Z" style="fill:#fff07f;fill-rule:nonzero;"/><path d="M52.914,61.578c0.768,-0.028 4.886,0.225 5.628,0.378c-0.327,0.023 -0.676,0.052 -1.002,0.062c0.432,0.05 0.676,-0.03 0.922,0.322c-1.896,-0.128 -3.216,-0.214 -5.094,-0.457l-0.459,-0.151l0.006,-0.155Z" style="fill:#fff07f;fill-opacity:0.01;fill-rule:nonzero;"/><path d="M43.5,65.17c1.402,0.275 2.423,0.533 3.798,0.976c-1.297,-0.083 -3.087,-0.292 -4.381,-0.511c0.307,-0.023 0.665,-0.029 0.976,-0.041c-0.343,-0.21 -0.216,-0.074 -0.394,-0.423Z" style="fill:#fff07f;fill-opacity:0.09;fill-rule:nonzero;"/></g></svg>