<?xml version="1.0" encoding="UTF-8" standalone="no"?><!DOCTYPE svg PUBLIC "-//W3C//DTD SVG 1.1//EN" "http://www.w3.org/Graphics/SVG/1.1/DTD/svg11.dtd"><svg width="100%" height="100%" viewBox="0 0 123 123" version="1.1" xmlns="http://www.w3.org/2000/svg" xmlns:xlink="http://www.w3.org/1999/xlink" xml:space="preserve" xmlns:serif="http://www.serif.com/" style="fill-rule:evenodd;clip-rule:evenodd;stroke-linejoin:round;stroke-miterlimit:2;"><g><path d="M0.201,40.334c2.672,-0.098 5.774,-0.032 8.483,-0.037l21.981,0.062c-0.343,0.422 -0.588,0.713 -0.967,1.103c-1.989,0.252 -5.55,0.105 -7.702,0.157c-6.439,0.155 -13.015,-0.186 -19.447,0.069c2.81,4.187 5.375,8.151 8.326,12.304c4.603,6.393 9.336,12.691 14.196,18.89c4.229,5.463 8.498,10.896 12.805,16.297l17.653,22.202l3.931,4.923c0.483,0.609 1.541,1.846 1.87,2.488c0.754,-1.131 1.633,-2.116 2.468,-3.173c1.819,-2.328 3.663,-4.637 5.529,-6.927l15.127,-19.062c9.104,-11.538 18.052,-22.773 26.681,-34.684c2.134,-2.943 4.199,-5.936 6.192,-8.977c0.912,-1.37 1.879,-2.969 2.814,-4.284c-2.325,-0.007 -4.624,-0.076 -6.973,-0.072c-5.229,0.078 -10.441,0.047 -15.668,-0.009c-1.468,-0.016 -3.024,0.064 -4.47,-0.202c-0.317,-0.303 -0.593,-0.561 -0.882,-0.894c0.621,-0.236 5.733,-0.199 6.8,-0.205l15.796,-0.002c2.619,0.003 5.518,0.069 8.114,-0.02c-0.933,1.711 -2.539,4.092 -3.615,5.749c-3.45,5.247 -7.063,10.384 -10.833,15.406c-6.175,8.288 -12.492,16.47 -18.947,24.541l-9.649,12.062l-13.492,17.05l-3.664,4.59c-0.236,0.3 -0.975,1.391 -1.119,1.532c-0.136,0.021 -0.224,0.067 -0.339,-0.065c-0.906,-1.038 -1.916,-2.346 -2.765,-3.412l-8.44,-10.682l-26.708,-33.797c-3.782,-4.835 -7.494,-9.725 -11.136,-14.667c-2.192,-3.048 -4.348,-6.122 -6.466,-9.222c-0.513,-0.761 -5.64,-8.511 -5.683,-8.939l0.201,-0.094l-0,-0Z" style="fill:#00c8e9;fill-rule:nonzero;"/><path d="M76.333,41.945c-2.698,-3.509 -8.374,-4.701 -12.614,-4.633c-4.599,0.124 -9.749,1.719 -13.743,3.975c-9.077,5.128 -15.904,14.953 -26.694,16.748c-0.734,0.122 -4.9,0.517 -4.747,-0.724c0.748,-0.222 1.76,-0.117 2.565,-0.312c2.031,-0.493 3.954,-0.762 5.837,-1.753c1.03,-0.542 2.184,-1.032 3.154,-1.662c9.814,-6.364 17.572,-16.897 29.589,-19.34c8.525,-1.849 18.857,1.238 21.912,10.22c0.7,2.059 0.443,4.987 -1.103,6.65l-0.057,0.062c0,-2.19 -0.603,-3.509 -2.124,-5.09c-3.038,-3.157 -9.395,-1.78 -10.52,2.605c-0.606,2.362 -0.116,4.99 1.741,6.686c2.548,2.278 5.633,2.517 8.719,1.348c4.065,-1.539 7.966,-4.669 12.526,-3.829c3.121,0.614 3.734,2.283 4.093,5.091c-0.807,-1.035 -1.992,-2.504 -3.347,-2.599c-2.874,-0.202 -3.651,3.103 -1.838,4.971c1.453,1.497 3.205,1.927 5.234,2.026c2.344,0.09 4.222,-0.832 6.361,-1.525c-0.382,0.503 -0.773,1.046 -1.227,1.483c-0.78,0.751 -1.514,0.748 -2.023,1.72c-1.741,1.12 -6.199,1.23 -8.133,0.669c-2.256,-0.655 -5.268,-1.678 -7.121,-3.124l-0.142,0.006c-1.039,0.046 -3.483,0.751 -3.99,0.564l-0.037,-0.121c0.369,-0.576 1.362,-1.007 1.938,-1.126c0.677,-0.14 2.617,-0.275 3.126,0.196c0.976,0.962 1.825,1.061 3.048,1.428c0.78,0.234 1.618,0.721 2.427,0.958c2.487,0.729 4.996,0.986 7.475,0.139l0.019,-0.037c-2.672,0.265 -5.113,0.143 -7.305,-1.64c-1.947,-1.584 -2.978,-4.43 -1.118,-6.517c0.629,-0.704 1.12,-0.891 1.959,-1.226c-0.534,0.065 -1.58,0.157 -2.043,0.33l0.215,0.212c-0.184,0.719 -1.97,1.586 -2.296,2.562c-0.531,1.587 -0.041,2.526 0.578,3.91c-0.186,0.052 -0.549,-0.099 -0.703,-0.203c-1.052,-0.709 -1.174,-2.405 -1.112,-3.531c-0.242,0.483 -0.592,1.287 -1.197,1.357c-0.677,-0.508 0.759,-1.928 1.065,-2.346c0.427,-0.583 1.912,-1.291 2.176,-1.669c-0.608,-0.132 -4.864,2.028 -5.633,2.444c-3.186,1.719 -6.62,2.656 -10.144,1.188c-1.596,-0.653 -2.953,-1.779 -3.89,-3.227c-1.278,-1.963 -1.694,-4.366 -1.152,-6.645c0.446,-1.941 1.88,-3.727 3.556,-4.768c2.282,-1.418 5.776,-1.441 8.092,-0.077c0.396,0.233 0.786,0.519 1.157,0.788c0.781,0.664 1.357,1.537 1.659,2.517c0.065,0.326 0.195,1.252 0.261,1.452l0.102,0.008c0.187,-0.658 0.05,-0.892 -0.154,-1.548c-0.339,-1.985 -2.412,-5.295 -3.945,-6.663c-2.283,-2.142 -5.859,-3.832 -8.964,-4.198c-0.796,-0.193 -1.688,-0.385 -2.51,-0.405c-2.652,-0.068 -7.652,0.691 -9.894,2.029c1.361,-0.41 3.402,-1.077 4.79,-1.314c2.06,-0.352 5.465,-0.319 7.557,-0.109c3.845,0.831 5.78,1.582 8.819,4.014c0.506,0.564 3.163,3.337 2.46,3.96l-0.06,-0.04c-0.435,-0.298 -2.06,-1.674 -2.549,-2.107c-0.036,-0.032 -0.331,0.099 -0.43,0.138c-2.686,-0.264 -4.454,-1.342 -7.22,-0.199c-0.389,0.161 -1.557,0.477 -1.9,0.207c0.107,-0.556 1.316,-1.153 1.821,-1.504c-0.865,-0.236 -2.034,-0.582 -2.915,-0.641c-5.072,-0.341 -10.377,1.158 -14.769,3.635c-3.705,2.089 -6.565,4.795 -9.81,7.43c-1.932,1.542 -3.93,2.999 -5.989,4.366c-3.054,2.064 -6.039,3.865 -9.858,3.91c-0.502,0.006 -2.151,0.249 -2.35,-0.099c0.061,-0.137 0.072,-0.202 0.249,-0.231c6.811,-1.131 12.248,-4.774 17.454,-9.13c3.279,-2.744 6.727,-5.878 10.623,-7.779c4.956,-2.166 15.199,-5.088 19.785,-1.469c1.386,0.067 4.121,0.274 5.223,1.162l-0,0Z" style="fill:#00c8e9;fill-rule:nonzero;"/><path d="M11.868,42.958c1.694,-0.097 15.176,-0.2 16.085,0.3l0.025,0.14c-0.029,0.029 -0.057,0.06 -0.088,0.086c-1.093,0.913 -18.956,0.355 -21.325,0.25c5.809,7.776 11.693,15.495 17.651,23.158l27.802,35.346c1.262,1.618 8.859,11.148 9.247,12.393c1.611,-2.413 3.68,-5.01 5.446,-7.318c3.288,-4.3 6.621,-8.566 9.998,-12.796l21.311,-27.096c4.262,-5.39 8.508,-11.118 12.676,-16.603c1.159,-1.542 2.327,-3.077 3.504,-4.605c0.612,-0.805 1.225,-1.729 1.897,-2.469c-0.951,0.109 -2.136,0.042 -3.12,0.089c-2.372,0.115 -4.696,0.143 -7.07,0.139c-1.801,-0 -9.968,0.156 -10.983,-0.67l0.051,-0.17c4.569,-0.148 8.434,-0.249 13.064,-0.208l6.252,0.07c0.978,0.003 2.114,0.039 3.078,-0.037l0.13,-0.011c-1.779,2.605 -3.421,5.247 -5.292,7.837c-11.092,15.351 -23.064,30.036 -34.722,44.955l-10.723,13.607c-1.556,1.977 -3.217,3.963 -4.729,5.977c-0.243,0.323 -0.242,0.654 -0.646,0.761c-0.461,-0.247 -14.984,-18.908 -16.323,-20.603c-11.967,-15.161 -24.33,-30.311 -35.513,-46.08c-1.486,-2.096 -2.887,-4.326 -4.4,-6.363c1.943,-0.13 4.638,-0.021 6.714,-0.08l-0,0Z" style="fill:#00c8e9;fill-rule:nonzero;"/><path d="M31.463,63.358c-0.767,-0.187 -4.771,-0.507 -4.962,-1.209c0.663,-0.52 4.746,0.023 5.73,-0.031c2.351,-0.13 4.908,-1.012 7.203,-1.577c2.703,-0.666 4.838,-1.489 7.699,-1.345c3.914,0.196 7.723,2.55 7.681,6.831c-0.004,0.239 -0.062,0.312 -0.224,0.453c-0.328,-0.11 -1.675,-3.284 -3.876,-3.147c-5.101,0.318 -4.294,6.378 -0.615,8.138c6.551,3.135 13.341,-1.483 19.138,-4.214c8.641,-4.072 17.695,-4.096 24.488,3.328c-0.316,0.397 -0.638,0.79 -0.966,1.177c-6.971,-5.211 -17.267,-3.32 -24.455,0.448c-2.843,1.49 -5.384,2.652 -8.433,3.646c-5.555,1.955 -11.825,0.938 -16.627,-2.33c-3.141,-2.137 -2.325,-3.619 -6.433,-1.533c-1.015,0.515 -3.973,0.481 -5.08,-0.056l-0.021,-0.079c0.182,-0.094 2.803,-0.518 3.546,-0.811c0.913,-0.092 3.21,-1.555 3.971,-1.48c1.55,0.154 4.568,3.274 5.65,3.822c2.083,1.056 4.616,1.92 6.781,2.166c6.042,0.685 11.557,-2.192 16.837,-4.696c6.036,-3.021 11.037,-4.207 17.795,-3.138c-1.784,-1.002 -4.548,-1.135 -6.569,-1.074c-0.611,0.019 -1.312,0.193 -1.926,0.241c-8.484,0.659 -14.941,8.004 -23.595,7.505c-4.212,-0.238 -8.713,-3.086 -8.627,-7.709c0.024,-1.302 0.712,-2.908 1.729,-3.741c1.425,-1.154 2.473,-1.093 4.156,-0.916c-1.15,-0.545 -2.4,-0.848 -3.672,-0.891c-0.66,-0.057 -1.721,-0.039 -2.365,0.01c-0.514,-0.003 -0.85,-0.021 -1.356,0.079c-1.503,0.116 -4.457,0.294 -5.841,0.712c-2.05,0.619 -4.127,1.397 -6.245,1.985l-0.515,-0.563l0,-0Z" style="fill:#00c8e9;fill-rule:nonzero;"/><path d="M61.339,1.633c0.331,0.16 2.941,4.266 3.543,4.911c1.234,1.322 1.842,3.171 3.694,3.999c-0.657,0.977 -1.577,2.054 -2.301,3.022c-1.711,2.287 -3.388,4.504 -4.9,6.934c-1.371,-1.888 -2.616,-3.92 -4.034,-5.812c-1.02,-1.361 -2.281,-2.745 -3.229,-4.1c2.391,-1.644 4.153,-4.734 5.889,-7.05c0.454,-0.606 0.842,-1.327 1.338,-1.904l0,0Zm-5.014,9.279c0.777,0.709 4.359,5.543 4.955,6.564l0.1,0.054c1.281,-1.858 3.5,-5.113 5.056,-6.651c-1.345,-1.111 -2.483,-2.926 -3.572,-4.317c-0.311,-0.396 -1.327,-1.99 -1.577,-2.147c-0.54,1.458 -3.816,5.426 -4.962,6.497l-0,0Z" style="fill:#00c8e9;fill-rule:nonzero;"/><path d="M61.326,6.726c0.513,0.361 2.739,3.494 3.046,4.175c0.131,0.29 -2.603,3.941 -2.959,4.427c-0.233,-0.224 -0.954,-1.259 -1.188,-1.575c-0.691,-0.933 -1.418,-1.882 -2.088,-2.828c0.416,-0.603 0.964,-1.209 1.412,-1.805c0.596,-0.791 1.16,-1.624 1.777,-2.394l-0,-0Zm-2.145,4.234c0.591,0.442 1.811,2.257 2.179,2.961c0.631,-1.161 1.298,-1.993 2.111,-3.026c-0.69,-0.671 -1.048,-1.208 -1.571,-2.01c-0.076,-0.116 -0.446,-0.719 -0.493,-0.764c-0.559,0.895 -1.476,2.058 -2.227,2.839Z" style="fill:#00c8e9;fill-rule:nonzero;"/><path d="M79.276,72.313c2.979,-0.315 7.677,0.493 10.272,2.237c0.212,0.142 0.327,0.323 0.353,0.58c-0.353,0.998 -1.47,0.14 -2.048,-0.049c-2.992,-0.976 -5.914,-1.639 -9.082,-1.133c-2.651,0.423 -5.196,1.038 -7.704,2.018c-6.673,2.63 -12.375,6.893 -19.692,7.745c-3.6,0.419 -7.022,0.337 -10.465,-0.98c-1.558,-0.597 -4.28,-1.862 -5.333,-3.184l0.049,-0.105c0.723,0.014 2.623,1.132 3.451,1.447c3.973,1.512 7.432,1.973 11.579,1.392c0.703,-0.077 1.873,-0.219 2.533,-0.358c2.033,-0.427 6.735,-1.946 8.392,-3.114c-1.157,0.358 -2.294,0.804 -3.459,1.133c-7.287,2.055 -15.489,1.97 -21.496,-3.236c-0.34,-0.295 -0.909,-0.713 -1.118,-1.113c0.475,-0.521 1.424,0.225 1.888,0.532c3.741,2.472 8.173,3.741 12.654,3.656c10.335,-0.197 18.967,-6.806 29.229,-7.468l-0,0Z" style="fill:#00c8e9;fill-rule:nonzero;"/><path d="M61.228,85.222c0.416,0.166 0.887,1.58 1.07,2.057c1.444,3.769 5.779,8.554 2.801,12.581c-0.824,1.114 -2.381,1.505 -3.682,1.638c-2.116,-0.183 -3.726,-0.856 -4.554,-2.989c-1.266,-3.263 1.357,-6.846 2.739,-9.67c0.589,-1.204 1.122,-2.401 1.627,-3.617l0,-0Zm-3.203,11.584c0.166,-0.722 0.368,-1.505 0.442,-2.236c-0.43,1.024 -0.837,1.89 -0.54,3.021c0.65,2.182 3.307,3.432 5.251,2.025c2.029,-1.469 1.588,-4.269 0.296,-6.067c0.193,1.198 1.02,2.415 0.507,3.687c-0.328,0.815 -1.004,1.45 -1.807,1.786c-0.794,0.341 -1.693,0.336 -2.483,-0.014c-1.067,-0.482 -1.293,-1.197 -1.667,-2.202l0,0Z" style="fill:#00c8e9;fill-rule:nonzero;"/><path d="M58.468,94.57c-0.075,0.732 -0.276,1.514 -0.442,2.236c-0.107,0.255 -0.088,0.505 -0.098,0.785c-0.298,-1.132 0.109,-1.997 0.54,-3.021l-0,0Z" style="fill:#00c8e9;fill-opacity:0.03;fill-rule:nonzero;"/><path d="M53.542,12.291c0.5,0.141 0.88,0.916 1.133,1.355c-0.475,0.771 -1.863,2.477 -2.511,3.349c-2.443,3.245 -4.902,6.477 -7.38,9.696l-10.903,14.379c-2.673,3.513 -6.547,9.143 -9.943,11.729c-0.211,0.167 -0.428,0.375 -0.683,0.383l-0.048,-0.103c0.54,-1.485 4.677,-6.716 5.682,-8.059l14.09,-18.648l7.175,-9.446c1.09,-1.451 2.26,-3.272 3.387,-4.636l0,0Z" style="fill:#00c8e9;fill-rule:nonzero;"/><path d="M69.032,12.268c0.294,0.13 3.292,4.301 3.704,4.851l7.231,9.543l10.745,14.258c1.137,1.509 8.897,11.42 8.63,12.344c-0.296,-0.044 -0.255,-0.083 -0.529,-0.307c-3.164,-2.654 -5.952,-6.486 -8.455,-9.831l-5.538,-7.374c-5.54,-7.325 -11.327,-14.733 -16.747,-22.129c0.261,-0.503 0.609,-0.91 0.959,-1.355l0,0Z" style="fill:#00c8e9;fill-rule:nonzero;"/><path d="M45.402,61.321c0.886,-0.032 1.527,-0.045 2.42,-0.001c0.267,0.179 0.179,0.06 0.274,0.368c-0.291,1.17 -4.247,1.6 -4.319,5.508c-0.041,2.261 1.967,4.618 1.978,4.93c-0.419,0.039 -0.776,-0.266 -1.087,-0.522c-1.993,-1.641 -1.957,-4.422 -2.282,-4.682l-0.271,0.051c-0.461,-1.626 2.312,-3.925 3.482,-4.706c-3.236,0.72 -5.173,2.022 -8.172,3.322c-3.262,1.414 -8.667,2.415 -11.895,0.436c-0.7,-0.429 -2.699,-2.561 -2.43,-3.26c1.55,0.418 3.204,1.935 4.967,2.204c2.803,0.429 6.097,-0.324 8.649,-1.545c2.795,-1.337 5.108,-1.293 7.976,-2.058c0.125,0.004 0.563,-0.035 0.709,-0.045l0,0Z" style="fill:#00c8e9;fill-rule:nonzero;"/><path d="M55.962,15.217c0.132,0.022 0.219,0.04 0.325,0.132c0.145,0.126 0.231,0.315 0.215,0.509c-0.094,1.139 -17.442,23.63 -19.797,26.51c-0.981,1.199 -3.114,3.72 -4.238,4.691l-0.315,0.291l-0.088,-0.013c0.237,-1.24 7.683,-10.8 8.983,-12.506l7.348,-9.738c1.829,-2.42 3.575,-4.906 5.468,-7.273c0.639,-0.799 1.417,-1.892 2.101,-2.602l-0,0Z" style="fill:#00c8e9;fill-rule:nonzero;"/><path d="M66.74,15.233c0.685,0.452 4.727,6.003 5.541,7.096l7.767,10.388c2.966,3.949 6.09,7.808 8.835,11.913c0.329,0.493 1.39,1.687 1.244,2.233l-0.114,-0.036c-1.198,-1.232 -2.346,-2.512 -3.441,-3.837c-2.724,-3.401 -5.419,-6.825 -8.085,-10.272c-1.181,-1.538 -12.244,-16.176 -12.234,-16.808c0.005,-0.308 0.271,-0.504 0.487,-0.677l0,0Z" style="fill:#00c8e9;fill-rule:nonzero;"/><path d="M60.305,42.696c0.57,-0.065 1.854,-0.102 2.143,0.493c-0.318,0.613 -3.323,0.99 -4.219,1.247c-0.722,0.211 -1.427,0.479 -2.107,0.799c-7.143,3.291 -11.5,9.484 -19.11,12.443c-0.323,0.118 -1.496,0.325 -1.994,0.458c0.625,-0.388 1.405,-0.757 2.07,-1.11c8.214,-4.361 13.46,-13.1 23.217,-14.33l0,-0Z" style="fill:#00c8e9;fill-rule:nonzero;"/><path d="M61.068,46.641c0.176,0.063 0.128,0.048 0.283,0.169c0.363,0.714 -0.186,1.852 -0.417,2.611c-0.361,1.183 -0.637,2.221 -0.674,3.469c-0.156,5.365 4.798,9.541 9.636,10.738c0.856,0.211 1.825,0.239 2.7,0.271c-0.455,0.173 -0.905,0.282 -1.374,0.407c-0.85,0.194 -1.729,0.222 -2.59,0.081c-2.869,-0.47 -5.734,-2.538 -7.454,-4.874c-2.124,-2.885 -2.668,-5.328 -2.151,-8.856c0.182,-1.242 0.982,-3.26 2.04,-4.016l-0,0Z" style="fill:#00c8e9;fill-rule:nonzero;"/><path d="M67.005,81.627c0.775,-0.534 2.328,-1.044 3.239,-1.456c5.736,-2.599 10.982,-3.987 16.99,-1.273c-0.533,0.443 -0.792,0.608 -1.392,0.967c-0.761,-0.295 -1.319,-0.347 -2.07,-0.53c-4.405,-1.069 -8.848,0.374 -13.009,1.745c-0.694,0.229 -3.1,1.056 -3.734,1.05l-0.265,-0.174l0.241,-0.329l-0,0Z" style="fill:#00c8e9;fill-rule:nonzero;"/><path d="M63.098,53.007c0.341,0.143 0.763,1.047 0.901,1.4c1.929,4.956 6.852,7.452 12.018,6.714c0.661,-0.094 3.238,-0.864 3.686,-0.481c-0.13,0.289 -0.176,0.248 -0.48,0.465c-0.169,0.094 -0.413,0.24 -0.594,0.307c-5.784,2.134 -12.45,0.715 -15.109,-5.284c-0.379,-0.854 -0.777,-2.217 -0.423,-3.12Z" style="fill:#00c8e9;fill-rule:nonzero;"/><path d="M55.219,54.663c0.772,0.443 1.395,3.152 1.918,4.078c1.98,3.499 5.096,6.04 8.89,7.34c0.153,0.053 0.127,0.134 0.162,0.279c-3.269,0.301 -7.251,-2.58 -8.974,-5.2c-1.123,-1.709 -2.442,-4.379 -1.996,-6.496Z" style="fill:#00c8e9;fill-rule:nonzero;"/><path d="M57.463,48.629c0.099,0.033 0.037,0.004 0.158,0.13c-0.122,1.146 -3.401,3.253 -4.321,4.061c-2.307,2.028 -4.083,4.329 -7.412,4.348l-0.134,-0.075c0.007,-0.028 0.012,-0.056 0.022,-0.082c0.12,-0.308 1.917,-1.116 2.353,-1.426c1.304,-0.927 2.35,-2.05 3.528,-3.113c1.576,-1.421 3.855,-3.035 5.806,-3.843l0,-0Z" style="fill:#00c8e9;fill-rule:nonzero;"/><path d="M34.892,67.054c0.326,0.012 0.476,0.049 0.708,0.277c0.04,0.318 -0.063,0.559 -0.341,0.718c-2.097,1.199 -5.072,1.283 -7.368,0.931c-0.342,-0.087 -1.122,-0.348 -1.028,-0.796c0.312,-0.285 2.369,-0.122 2.972,-0.168c1.892,-0.144 3.253,-0.471 5.058,-0.962l-0,0Z" style="fill:#00c8e9;fill-rule:nonzero;"/><path d="M82.145,69.682c3.834,-0.152 6.078,0.429 9.083,2.704c-0.63,-0.116 -0.928,-0.176 -1.528,-0.383c-2.761,-0.808 -5.091,-1.351 -8.001,-1.399c-0.342,-0.006 -0.792,-0.003 -1.036,-0.246l0.042,-0.167c0.427,-0.332 0.919,-0.408 1.441,-0.509l0,-0Z" style="fill:#00c8e9;fill-rule:nonzero;"/><path d="M65.883,43.316c0.342,-0.009 0.497,-0.075 0.622,0.26c-0.122,0.787 -1.357,1.762 -1.849,2.682c-0.648,1.211 -0.847,2.353 -1.415,3.521c-0.331,0.082 -0.199,0.117 -0.43,-0.015c-0.337,-0.748 -0.004,-2.171 0.238,-2.939c0.412,-1.303 1.599,-2.89 2.834,-3.509l0,0Z" style="fill:#00c8e9;fill-rule:nonzero;"/><path d="M40.002,74.958c0.811,0.021 2.663,1.273 3.649,1.545c0.318,0.087 2.784,0.963 2.913,1.065l-0.03,0.144c-0.088,0.028 -0.176,0.056 -0.265,0.083c-1.621,0.481 -5.797,-1.179 -6.268,-2.838l0,0Z" style="fill:#00c8e9;fill-rule:nonzero;"/><path d="M57.005,64.217c0.23,0.063 1.121,0.921 1.379,1.135c0.948,0.79 2.006,1.384 2.982,2.128c0.168,0.128 0.118,0.085 0.133,0.308c-1.621,0.015 -5.02,-1.712 -4.494,-3.571l-0,0Z" style="fill:#00c8e9;fill-rule:nonzero;"/><path d="M56.744,86.498c0.1,-0.013 0.129,0.006 0.234,0.026l0.018,0.171c-0.86,1.606 -3.795,2.4 -5.507,2.463c-0.11,0.033 -0.128,0.012 -0.257,-0.005l-0.016,-0.109c0.666,-0.352 1.707,-0.759 2.435,-1.08c1.039,-0.471 2.07,-0.96 3.093,-1.466l0,0Z" style="fill:#00c8e9;fill-rule:nonzero;"/><path d="M95.756,65.607c0.083,-0.017 0.235,-0.022 0.325,-0.028l0.072,0.118c-0.484,0.813 -2.796,0.574 -3.6,0.45c-0.491,-0.077 -0.639,-0.094 -1.115,-0.289c0.879,-0.155 3.345,-0.219 4.318,-0.252Z" style="fill:#00c8e9;fill-rule:nonzero;"/><path d="M67.029,82.13c-0.374,0.155 -0.852,0.396 -1.245,0.341l-0.006,-0.118c0.314,-0.331 0.806,-0.556 1.227,-0.726l-0.241,0.329l0.265,0.174Z" style="fill:#00c8e9;fill-opacity:0.98;fill-rule:nonzero;"/></g></svg>