<?xml version="1.0" encoding="UTF-8" standalone="no"?><!DOCTYPE svg PUBLIC "-//W3C//DTD SVG 1.1//EN" "http://www.w3.org/Graphics/SVG/1.1/DTD/svg11.dtd"><svg width="100%" height="100%" viewBox="0 0 123 123" version="1.1" xmlns="http://www.w3.org/2000/svg" xmlns:xlink="http://www.w3.org/1999/xlink" xml:space="preserve" xmlns:serif="http://www.serif.com/" style="fill-rule:evenodd;clip-rule:evenodd;stroke-linejoin:round;stroke-miterlimit:2;"><path d="M61.413,0l6.957,8.427c-1.34,1.849 -2.657,3.714 -3.951,5.595c-0.785,1.128 -2.077,3.055 -3.023,4.013c-1.46,-1.776 -2.977,-4.013 -4.285,-5.906c-0.77,-1.115 -1.815,-2.535 -2.516,-3.654c1.317,-1.904 6.192,-7.575 6.817,-8.475Zm-4.844,8.455c0.559,0.849 4.449,6.52 4.951,6.717c1.653,-2.238 3.304,-4.382 4.805,-6.728c-0.609,-0.858 -4.521,-6.348 -4.988,-6.495c-1.361,1.728 -3.534,4.662 -4.768,6.507Z" style="fill:#ff8c00;"/><path d="M55.93,61.422c1.951,-3.273 3.179,-5.75 2.09,-9.64c-1.961,-7.007 -6.317,-10.12 -1.128,-17.097c0.066,3.732 1.179,6.818 3.921,9.387c2.841,2.604 7.027,4.447 7.036,8.912c0.006,2.611 -1.048,5.543 1.123,7.644c1.76,1.702 4.798,1.633 6.421,-0.249c1.74,-2.019 2.265,-4.653 2.055,-7.268c-0.019,-0.258 -0.048,-0.514 -0.088,-0.77c3.142,3.125 3.683,6.616 1.894,10.627c-0.754,1.69 -1.684,3.273 -2.379,4.985c-0.955,2.366 -1.102,5.177 0.797,7.12c1.745,1.786 4.403,1.688 6.096,-0.14c0.472,-0.523 0.721,-0.907 1.042,-1.529c1.765,4.878 2.991,8.899 0.578,13.998c-0.318,0.689 -0.705,1.343 -1.154,1.955c0.66,-2.958 0.861,-6.541 -1.251,-9c0.018,1.111 0.206,2.314 0.177,3.358c-0.141,4.154 -1.839,8.102 -4.756,11.062c-2.913,2.999 -8.668,6.482 -12.72,7.417c1.358,-1.363 2.865,-2.549 4.221,-3.895c2.785,-2.764 5.152,-6.749 5.183,-10.771c0.018,-2.254 -0.757,-4.511 -2.287,-6.188c-0.059,3.599 -0.095,5.566 -2.857,8.236c-1.405,1.358 -2.956,1.986 -4.539,3.08c-0.648,0.447 -1.473,1.338 -2.12,1.766c-0.04,-2.054 0.418,-3.09 1.451,-4.818c1.194,-1.997 2.215,-4.206 1.92,-6.574c-0.414,-4.711 -4.838,-6.055 -5.837,-10.434c-0.33,-1.447 -0.268,-2.604 -0.238,-4.068c-2.378,2.463 -4.382,5.818 -3.194,9.438c0.925,2.819 3.217,5.969 0.641,8.741c-0.839,0.9 -2.013,1.413 -3.243,1.417c-2.041,0.018 -2.542,-0.822 -3.846,-1.933c-0.655,3.962 0.422,7.195 2.731,10.43c0.81,1.119 1.711,2.171 2.692,3.145c0.63,0.615 1.574,1.404 2.094,2.067l0.084,0.106c0.016,0.022 0.033,0.043 0.049,0.065c-1.605,-0.503 -2.886,-1.196 -4.366,-1.952c-3.766,-1.923 -7.671,-4.637 -9.71,-8.443c-1.236,-2.306 -1.926,-5.68 -1.458,-8.301c0.765,4.061 2.412,7.813 5.363,10.778c0.768,0.772 1.677,1.461 2.54,2.128c0.184,-0.084 0.131,-0.041 0.253,-0.191c-0.027,-0.413 -0.656,-1.379 -0.845,-1.984l-0.029,-0.097c-0.276,-0.326 -0.935,-2.611 -1.039,-3.098c-0.606,-2.839 -0.128,-5.739 1.475,-8.179c0.389,-0.556 0.654,-0.858 1.159,-1.33c-0.104,0.93 -0.261,2.101 0.016,3.018c0.326,0.858 0.744,1.391 1.545,1.871c1.009,0.29 1.517,0.361 2.53,-0.023c3.134,-2.01 0.606,-5.084 -0.187,-7.68c-1.712,-5.607 1.902,-10.211 6.263,-13.304c0.562,-0.374 0.955,-0.609 1.549,-0.931c-0.203,0.542 -0.41,1.081 -0.621,1.619c-0.955,2.577 -1.414,4.919 -0.216,7.532c0.704,1.535 2.025,2.78 3.106,4.059c2.39,2.829 3.013,6.25 1.734,9.73c-0.342,0.93 -0.743,1.796 -1.149,2.703c5.265,-2.708 5.815,-7.837 2.961,-12.67c8.201,3.267 9.159,11.973 4.383,18.729c-0.537,0.759 -1.09,1.502 -1.65,2.246c2.793,-1.784 4.435,-4.404 5.137,-7.629c0.739,-3.286 0.13,-6.731 -1.691,-9.565c-1.386,-2.141 -3.528,-3.96 -6.008,-4.637c-1.973,-0.538 -0.196,2.603 0.007,3.195c0.879,2.558 0.91,5.29 -0.94,7.427c0.7,-3.145 0.857,-6.181 -1.022,-8.784c-2.545,-3.528 -5.386,-5.414 -4.229,-10.262c0.297,-1.245 1.19,-3.264 0.943,-4.533c-0.042,-0.14 -0.304,-0.288 -0.439,-0.266c-1.567,0.255 -4.783,3.01 -5.686,3.951c-2.329,2.426 -3.922,5.505 -3.839,8.845c0.031,1.009 0.21,2.008 0.531,2.965c0.496,1.487 2.362,4.81 1.17,5.943c-1.567,1.49 -3.58,-0.038 -3.409,-2.058c0.053,-0.622 0.055,-1.767 -0.186,-2.262c-0.116,-0.094 -0.232,-0.211 -0.41,-0.142c-1.278,0.499 -2.284,2.045 -2.826,3.095c-1.617,3.137 -1.166,6.32 -0.433,9.603c-2.378,-2.469 -3.792,-5.706 -4.713,-8.949c-0.213,-0.748 -0.576,-3.538 -0.977,-3.92c-0.331,0.212 -0.45,0.731 -0.571,1.101c-0.838,2.568 -0.73,5.882 -0.107,8.46c-2.065,-3.125 -2.165,-5.752 -2.106,-9.433c0.003,-0.19 -0.075,-0.204 -0.202,-0.306c-1.399,0.04 -2.173,4.284 -2.4,5.375c-1.497,-4.501 -0.777,-9.328 1.272,-13.604c0.06,-0.125 0.145,-0.248 0.221,-0.364c0.699,0.815 1.602,1.943 2.751,2.052c1.18,0.115 2.356,-0.247 3.267,-1.006c2.835,-2.363 2.934,-8.156 1.764,-11.333c-0.371,-1.006 -0.98,-2.205 -1.476,-3.17c-1.315,-2.557 -2.457,-4.48 -0.988,-7.27c0.721,1.685 1.535,2.766 3.291,3.485c1.93,0.791 3.296,0.753 4.217,2.911c0.98,2.296 0.083,3.627 0.242,5.884c0.048,0.68 0.716,2.259 0.974,2.968c0.183,0.503 0.322,1.299 0.562,1.686l0.132,0.039c0.5,-0.415 0.731,-2.377 1.3,-3.356c2.019,-3.469 5.157,-4.915 5.466,-9.32c0.088,-1.252 0.038,-2.042 -0.039,-3.292c2.03,2.289 2.62,4.974 3.214,7.829c0.122,-0.915 0.194,-1.778 0.27,-2.697c0.4,0.976 0.71,1.903 0.881,2.944c0.463,2.815 0.376,5.833 3.497,7.138c1.594,0.666 3.171,0.65 4.771,-0.011c0.355,-0.15 0.706,-0.311 1.051,-0.482c-1.178,2.533 -2.071,4.58 -1.052,7.547c0.553,1.611 2.59,4.167 4.718,4.212c0.089,0.003 0.138,-0.1 0.196,-0.176c-0.091,-0.956 -4.241,-2.459 -3.532,-7.016c0.547,-3.515 2.974,-5.893 2.812,-9.415c-0.021,-0.466 -0.033,-1.031 -0.355,-1.397c-0.535,0.253 -1.225,2.3 -1.688,2.913c-1.438,1.9 -4.044,3.322 -6.433,2.465c-3.387,-1.214 -2.035,-5.387 -3.007,-8.126c-1.569,-4.427 -5.863,-7.255 -6.704,-11.966c-0.028,-0.161 -0.167,-0.299 -0.304,-0.375c-0.212,0.142 -0.254,0.321 -0.3,0.582c-0.822,4.738 2.39,8.449 -0.734,12.98c-0.682,0.989 -1.177,1.822 -2.119,2.71Zm-6.304,10.037c0.157,-0.411 0.355,-0.796 0.548,-1.192c1.308,-3.758 1.402,-6.784 -0.456,-10.434c-0.269,-0.528 -0.815,-1.179 -1.162,-1.69c-0.466,-0.28 -0.544,-0.291 -1.069,-0.197c2.729,5.33 2.58,12.913 -3.046,16.416c-0.421,0.262 -2.146,0.702 -2.303,0.989c0.061,0.155 0.113,0.286 0.319,0.309c3.394,0.398 5.576,-1.635 7.168,-4.201Z" style="fill:#ff8c00;fill-rule:nonzero;"/><path d="M60.653,27.734l0.203,0.049c0.096,0.248 -0.257,1.039 -0.376,1.295c-1.436,3.073 -1.543,6.193 -0.421,9.455c1.747,5.082 7.544,5.962 9.619,10.927c0.518,1.267 0.767,2.627 0.732,3.995c-0.08,2.437 -1.588,4.851 1.588,5.872c3.473,-0.862 3.36,-6.006 1.972,-8.552c-1.372,-2.514 -2.084,-6.402 0.295,-8.583c0.111,0.921 -0.029,1.7 0.062,2.517c0.288,2.579 2.649,3.976 4.399,5.462c1.719,1.46 3.049,3.378 3.702,5.48c1.797,5.129 -1.486,8.8 -3.333,13.205c-0.554,1.322 -0.884,3.584 0.446,4.557c0.304,0.222 0.865,0.485 1.252,0.368c2.305,-0.7 1.403,-3.9 1.797,-5.68c0.335,-1.659 0.641,-2.683 1.599,-4.048c0.45,-0.641 1.971,-2.227 2.634,-2.332c0.104,0.358 -0.689,2.329 -0.772,3.083c-0.125,1.144 -0.174,1.576 -0.089,2.768c0.172,2.396 0.971,4.224 1.812,6.431c1.536,4.024 2.067,8.09 0.833,12.275c-1.388,4.708 -4.167,7.537 -8.122,10.202c-0.738,0.497 -1.576,1.075 -2.352,1.498c0.58,-1.189 1.786,-2.319 2.647,-3.353c0.519,-0.623 1.342,-1.872 1.917,-2.315c0.086,-0.008 0.486,-0.048 0.525,-0.079c0.862,-0.661 2.033,-2.429 2.512,-3.291c4.233,-7.611 0.68,-12.804 -1.335,-19.991c-0.296,1.564 -0.008,3.192 -0.809,4.638c-1.467,2.684 -5.406,2.346 -6.335,-0.616c-1.473,-4.696 3.078,-8.256 3.798,-12.663c0.743,-4.549 -1.68,-8.215 -5.463,-10.442c1.179,3.625 1.77,6.768 -1.015,10.013c-1.258,1.467 -3.967,1.347 -5.219,-0.073c-1.602,-1.817 -0.746,-4.11 -0.579,-6.227c0.337,-5.645 -4.803,-7.498 -8.08,-10.885c-2.787,-2.881 -3.122,-6.567 -2.929,-10.332c-1.127,0.976 -2.201,2.566 -2.955,3.846c-1.262,2.527 -1.503,4.03 -0.957,6.791c0.839,4.246 4.046,8.011 3.671,12.448c-0.231,2.728 -2.239,5.146 -4.28,6.809c0.347,-2.126 0.466,-4.156 -0.58,-6.103c-1.376,-2.56 -4.021,-1.963 -5.944,-3.674c-1.135,-1.009 -1.453,-2.614 -1.53,-4.081c-0.118,0.139 -0.233,0.28 -0.346,0.423c-4.946,6.213 1.6,9.438 2.17,15.674c0.203,2.226 -0.178,5.028 -1.618,6.833c-1.069,1.34 -3.104,1.907 -4.458,0.639c-1.049,-0.983 -1.146,-2.136 -1.183,-3.478c-2.297,3.514 -3.473,7.016 -3.734,11.244c-0.223,3.604 1.137,8.757 3.604,11.444c-0.963,-3.29 -1.422,-5.3 -0.217,-8.689c-0.036,0.471 -0.066,0.943 -0.089,1.416c-0.082,1.849 0.105,2.794 0.539,4.567c1.024,4.185 3.185,6.552 5.982,9.605c-0.14,-0.051 -0.28,-0.104 -0.418,-0.16c-4.024,-1.619 -7.797,-5.601 -9.452,-9.599c-2.274,-5.155 -1.999,-11.939 0.395,-16.979c2.099,-4.42 5.057,-7.875 2.392,-12.879c-0.129,-0.242 -0.15,-0.409 -0.049,-0.663c0.624,-0.24 1.508,1.179 1.829,1.622c1.772,2.447 1.545,5.008 1.045,7.853c-0.159,0.905 -0.39,3.123 0.715,3.722c1.272,0.431 2.329,-1.512 2.598,-2.352c1.367,-4.281 -0.386,-7.602 -2.478,-11.202c-1.089,-1.875 -1.448,-4.293 -0.712,-6.366c0.813,-2.618 3.662,-6.053 6.07,-7.291c-0.649,1.857 -1.408,4.118 -0.795,6.098c0.656,2.119 2.887,2.042 4.536,2.943c2.223,1.215 2.797,2.704 3.486,4.962c2.762,-4.556 -1.683,-9.698 -2.767,-13.999c-0.541,-2.12 -0.457,-4.352 0.243,-6.425c0.358,-1.066 0.852,-2.082 1.469,-3.022c1.29,-1.989 4.589,-5.555 6.703,-6.604Z" style="fill:#ff8c00;fill-rule:nonzero;"/><path d="M61.421,122.842c-0.047,-0.071 -39.606,-30.578 -40.203,-31.546c-0.141,-2.267 -0.075,-5.02 -0.077,-7.33l-0.024,-11.613c-1.833,-1.464 -3.615,-2.957 -5.466,-4.414c-1.848,-1.454 -4.054,-3.086 -5.787,-4.643c1.414,-1.235 3.238,-2.585 4.748,-3.776c2.164,-1.727 4.317,-3.467 6.46,-5.221c-0.129,-0.995 -0.097,-2.322 -0.096,-3.344l0,-4.665c-0.036,-4.708 -0.041,-9.416 -0.016,-14.125c6.726,-4.616 13.797,-9.196 20.62,-13.72l7.709,-5.104c1.471,-0.973 3.114,-2.128 4.619,-2.995c0.331,0.246 0.733,0.963 0.944,1.326c-1.766,1.089 -3.674,2.412 -5.424,3.57l-11.272,7.505l-8.799,5.858c-2.204,1.458 -4.579,2.981 -6.71,4.529c-0.002,7.139 0.306,14.909 0.051,21.987c-0.566,0.525 -1.208,0.973 -1.806,1.462c-2.747,2.247 -5.585,4.431 -8.249,6.773c1.031,0.976 2.334,1.946 3.459,2.825l3.82,3.039c0.678,0.538 2.86,2.04 2.89,2.818c0.245,6.254 0.045,12.558 0.199,18.817c1.276,0.96 38.364,29.841 38.364,29.841l38.531,-29.873l0.116,-19.085c0.64,-0.78 1.898,-1.704 2.718,-2.386c2.272,-1.888 4.637,-3.686 6.957,-5.514c0.255,-0.201 0.403,-0.313 0.428,-0.589c-0.251,-0.415 -1.801,-1.465 -2.252,-1.857c-2.484,-2.156 -5.385,-4.046 -7.759,-6.302l0.115,-21.906c-1.47,-1.109 -3.297,-2.269 -4.842,-3.31c-2.624,-1.787 -5.261,-3.556 -7.911,-5.305l-19.468,-12.93c0.252,-0.442 0.614,-0.853 0.935,-1.251c1.044,0.479 2.748,1.673 3.739,2.345l4.753,3.199l16.611,11.001c2.412,1.594 5.454,3.796 7.874,5.217c0.088,2.96 0.011,6.034 -0.008,8.997l-0.048,13.208c3.453,2.853 7.594,6.284 11.149,8.958c-3.706,2.935 -7.645,5.972 -11.24,9.019c-0.056,6.315 -0.079,12.63 -0.069,18.944l-0.054,0.076c-0.462,0.642 -1.228,1.205 -1.848,1.713c-0.578,0.487 -31.823,24.568 -38.383,29.776Z" style="fill:#ff8c00;"/><path d="M98.325,89.792c-1.037,0.994 -36.939,29.227 -36.948,29.24c-0.126,-0.052 -34.325,-27.007 -36.815,-29.254c-0.165,-2.799 -0.074,-6.338 -0.083,-9.228l-0.094,-15.943l-0.143,-20.6c-0.015,-3.027 -0.153,-6.821 -0.041,-9.759c1.053,-0.93 3.87,-2.679 5.126,-3.51l8.767,-5.835c5.776,-3.798 12.024,-8.332 17.892,-11.873c0.334,0.297 0.521,0.564 0.794,0.914c-2.197,1.647 -5.309,3.597 -7.657,5.168l-14.715,9.839c-2.986,1.987 -5.964,3.849 -8.872,5.956c0.102,2.967 0.032,6.197 0.044,9.186l0.1,17.683l0.122,18.16c0.02,2.948 0.146,6.255 0.062,9.163c2.827,2.455 34.014,27.301 35.514,28.562c1.731,-1.405 28.298,-22.369 35.665,-28.556c-0.083,-7.066 0.066,-14.334 0.098,-21.422l0.143,-32.711c-2.069,-1.617 -5.52,-3.783 -7.779,-5.305l-15.514,-10.381l-4.868,-3.232c-0.884,-0.589 -2.155,-1.397 -2.945,-2.055c0.25,-0.426 0.357,-0.546 0.675,-0.911c0.853,0.336 3.194,1.948 4.022,2.505l6.371,4.287c4.74,3.122 9.464,6.27 14.17,9.444c2.315,1.548 5.093,3.244 7.272,4.911c-0.076,1.836 -0.033,3.912 -0.032,5.767l-0.02,8.923l-0.19,28.396l-0.057,7.541c-0.006,1.567 0.033,3.39 -0.063,4.93Z" style="fill:#ff8c00;"/><path d="M63.276,22.76c1.398,0.122 2.871,2.446 3.326,3.645c1.554,4.086 -2.338,4.887 -2.412,8.907c0.039,0.369 0.101,0.718 -0.115,1.031l-0.16,-0.017c-0.425,-0.418 -0.776,-1.199 -1.008,-1.723c-1.494,-3.36 1.021,-5.068 1.271,-8.071c0.107,-1.291 -0.527,-2.48 -0.88,-3.688l-0.023,-0.084Z" style="fill:#ff8c00;fill-rule:nonzero;"/><path d="M100.048,57.179c0.446,0.174 1.338,0.999 1.714,1.334c0.051,2.259 -0.014,4.543 0.018,6.805c0.013,0.918 0.013,1.922 -0.079,2.83c-0.169,0.167 -0.356,0.339 -0.531,0.502c-0.354,0.313 -0.754,0.605 -1.131,0.893l0.009,-12.365Z" style="fill:#ff8c00;fill-rule:nonzero;"/><path d="M22.642,57.223l0.081,0.028c0.148,0.212 0.094,10.94 0.088,12.242l-0.806,-0.604l-0.863,-0.715c-0.034,-3.241 -0.036,-6.482 -0.005,-9.723c0.477,-0.432 0.997,-0.829 1.503,-1.228Z" style="fill:#ff8c00;fill-rule:nonzero;"/><path d="M34.398,53.552c0.202,0.299 -0.546,2.096 -0.475,2.889c0.248,2.761 3.292,4.995 1.721,7.895c-0.14,0.259 -0.146,0.358 -0.411,0.441l-0.121,-0.129c-0.979,-2.223 -2.738,-3.782 -2.642,-6.194c0.075,-1.908 0.542,-3.566 1.928,-4.903Z" style="fill:#ff8c00;fill-rule:nonzero;"/><path d="M48.121,33.891c0.311,0.354 0.046,1.649 0.113,2.187c0.133,1.075 1.467,4.372 -0.751,3.929c-1.85,-1.858 -0.697,-4.371 0.638,-6.116Z" style="fill:#ff8c00;fill-rule:nonzero;"/><path d="M86.468,52.613c2.044,1.335 1.632,4.017 -0.019,5.535c-0.281,0.247 -0.321,0.302 -0.655,0.45c-0.869,-0.18 0.494,-2.682 0.556,-3.334c0.085,-0.898 -0.042,-1.795 0.119,-2.651Z" style="fill:#ff8c00;fill-rule:nonzero;"/><path d="M68.289,37.556c0.815,0.7 1.22,4.531 0.375,5.425c-1.168,-1.501 -1.391,-3.79 -0.375,-5.425Z" style="fill:#ff8c00;fill-rule:nonzero;"/><path d="M78.368,41.081c0.431,0.382 0.624,4.562 0.367,4.968l-0.175,0.029l-0.196,-0.148c-1.11,-1.943 -1.449,-2.913 0.004,-4.849Z" style="fill:#ff8c00;fill-rule:nonzero;"/><path d="M77.706,34.666l0.109,0.178c0.07,0.864 -1.245,2.903 -2.024,3.07c-0.992,-1.29 0.781,-2.813 1.915,-3.249Z" style="fill:#ff8c00;fill-rule:nonzero;"/><path d="M37.411,47.885c1.383,0.653 1.485,2.085 1.053,3.388c-1.369,-0.375 -1.473,-2.286 -1.053,-3.388Z" style="fill:#ff8c00;fill-rule:nonzero;"/><path d="M49.799,43.651c1.118,0.393 0.83,1.485 0.606,2.381c-1.097,-0.247 -0.96,-1.586 -0.606,-2.381Z" style="fill:#ff8c00;fill-rule:nonzero;"/><path d="M61.365,4.205c0.298,0.124 2.922,3.533 3.035,3.866c0.255,0.752 -2.382,3.989 -2.898,4.692c-0.776,-0.588 -2.803,-3.509 -3.166,-4.468c0.932,-1.438 1.957,-2.756 3.029,-4.091Zm-2.066,4.127c0.443,0.658 1.617,2.52 2.21,2.896c0.714,-0.938 1.387,-1.92 2.063,-2.887c-0.354,-0.429 -1.914,-2.56 -2.196,-2.707c-0.663,0.914 -1.315,1.867 -2.077,2.697Z" style="fill:#ff8c00;fill-rule:nonzero;"/></svg>