<?xml version="1.0" encoding="UTF-8" standalone="no"?><!DOCTYPE svg PUBLIC "-//W3C//DTD SVG 1.1//EN" "http://www.w3.org/Graphics/SVG/1.1/DTD/svg11.dtd"><svg width="100%" height="100%" viewBox="0 0 123 123" version="1.1" xmlns="http://www.w3.org/2000/svg" xmlns:xlink="http://www.w3.org/1999/xlink" xml:space="preserve" xmlns:serif="http://www.serif.com/" style="fill-rule:evenodd;clip-rule:evenodd;stroke-linejoin:round;stroke-miterlimit:2;"><clipPath id="_clip1"><rect x="2.784" y="0" width="117.313" height="122.88"/></clipPath><g clip-path="url(#_clip1)"><path d="M57.103,30.183c2.837,-0.003 5.674,0.011 8.511,0.043c0.363,0.287 0.786,0.722 1.013,1.121c1.898,3.349 3.806,6.711 5.714,10.054l11.212,19.516c1.771,3.105 3.558,6.2 5.364,9.284c1.019,1.735 2.972,4.867 3.657,6.611c-0.387,1.414 -3.254,6.551 -4.255,7.594c-1.536,0.269 -6.297,0.142 -8.067,0.143l-14.666,0.073l-20.213,0.077c-3.601,0.015 -7.128,0.096 -10.732,0.012c-0.684,-0.906 -1.367,-2.176 -1.931,-3.185c-0.828,-1.481 -1.944,-3.11 -2.448,-4.717c0.805,-1.832 2.312,-4.221 3.354,-6.025l5.854,-10.181l10.84,-18.914c2.003,-3.511 3.989,-7.04 6.009,-10.54c0.235,-0.407 0.393,-0.693 0.785,-0.966Zm-20.203,37.925c-0.284,0.519 -0.592,1.113 -0.908,1.603c-0.84,1.666 -1.937,3.295 -2.836,4.944c-0.38,0.696 -0.926,1.506 -1.17,2.247c0.65,1.564 2.095,4.125 3.036,5.529c0.42,-0.495 1.487,-2.453 1.842,-3.076l3.448,-6.04l12.972,-22.614c0.976,-1.721 2.417,-4.403 3.563,-6.116c0.15,-0.224 0.518,-0.216 0.779,-0.195c0.665,0.628 2.203,3.512 2.739,4.448l5.239,9.237l3.896,6.667c0.844,1.441 1.777,2.971 2.504,4.463l6.395,0.015c-1.365,-2.684 -3.15,-5.614 -4.664,-8.228l-7.435,-12.914l-5.432,-9.53c-1.009,-1.786 -2.381,-4.39 -3.504,-5.998c-0.73,1.004 -1.575,2.582 -2.204,3.694l-3.18,5.598l-9.844,17.171c-1.603,2.799 -3.541,6.465 -5.235,9.094Zm21.82,-36.349c0.755,1.651 1.812,3.282 2.738,4.854c0.977,1.66 1.901,3.332 2.87,4.996l10.31,17.981l3.303,5.721c0.572,0.98 2.34,3.615 2.407,4.901c0.003,0.065 -0.345,0.424 -0.432,0.37c-2.331,0.221 -5.237,0.132 -7.551,0.122l-13.045,-0.03c-2.425,-0.005 -5.231,-0.081 -7.628,0.024c-0.975,1.733 -2.25,3.799 -3.113,5.538l28.333,-0.061c4.328,-0.014 9.401,-0.183 13.652,-0.043c-1.088,-2.081 -2.454,-4.279 -3.638,-6.344l-7.186,-12.52c-1.125,-1.952 -2.609,-4.368 -3.607,-6.337c-0.378,-0.597 -0.631,-1.043 -0.955,-1.672c-0.825,-1.174 -2.097,-3.59 -2.846,-4.901l-3.924,-6.834c-0.95,-1.671 -1.874,-3.404 -2.867,-5.045c-0.53,-1.091 -1.259,-0.809 -2.363,-0.762c-1.024,0.119 -3.387,0.047 -4.458,0.04Zm2.596,22.169c-2.868,5.069 -6.013,10.136 -8.769,15.224c2.664,0.174 6.328,0.069 9.084,0.061l8.678,-0.003c-0.773,-1.421 -8.418,-14.906 -8.993,-15.282Zm-3.966,-7.231l-13.968,24.349l-4.743,8.297c-0.678,1.184 -1.667,2.753 -2.268,3.932c2.193,-0.072 4.496,-0.034 6.703,-0.036c1.482,-0.002 3.369,-0.065 4.823,0.006c0.263,-0.059 1.931,-0.042 2.296,-0.044l5.774,-0.019l21.869,-0.099c0.705,-0.119 2.447,-0.068 3.222,-0.075c2.157,-0.02 4.341,0.028 6.499,0.003c0.979,-1.938 2.069,-3.597 3.102,-5.453c-3.615,-0.061 -7.319,0.033 -10.943,0.054l-20.615,0.088l-7.952,0.063c-0.79,0.002 -3.701,0.159 -4.45,-0.245c-0.128,-0.069 -0.236,-0.691 -0.125,-0.787c0.367,-1.03 0.939,-1.936 1.496,-2.876c0.742,-1.251 1.474,-2.516 2.202,-3.779l6.502,-11.333c1.185,-2.082 2.589,-4.446 3.664,-6.565c-0.851,-1.813 -2.077,-3.726 -3.088,-5.481Z" style="fill:#d5d4ec;fill-rule:nonzero;"/><path d="M47.898,83.244c0.263,-0.059 1.931,-0.042 2.296,-0.044l5.774,-0.019l21.869,-0.099c-0.803,0.388 -4.473,0.178 -5.54,0.178c-0.439,-0.001 -0.39,0.342 -0.725,0.281c-0.45,-0.082 -0.667,-0.228 -1.148,-0.19l-0.013,0.093c0.35,0.148 0.655,0.151 1.036,0.189c-0.557,0.01 -3.201,0.083 -3.668,-0.009l0.52,-0.137l-0.01,-0.053c-0.175,0.01 -0.196,0.035 -0.342,-0.052c-0.401,-0.236 -14.396,-0.094 -16.126,-0.093c-0.905,0.002 -3.155,0.174 -3.923,-0.044Z" style="fill:#d5d4ec;fill-rule:nonzero;"/><path d="M56.727,3.171c0.201,-0.025 0.304,-0.064 0.483,0.019c0.033,0.517 -1.085,1.858 -1.507,1.973c-1.734,0.476 -4.124,0.71 -5.893,1.092c-8.946,1.9 -17.307,5.916 -24.382,11.712c-11.492,9.342 -18.791,22.877 -20.282,37.612c-1.465,14.905 3.128,29.772 12.745,41.254c9.696,11.787 23.686,19.231 38.88,20.685c14.873,1.397 29.133,-3.622 40.559,-13.092c11.628,-9.485 18.983,-23.224 20.43,-38.16c1.355,-14.756 -3.231,-29.442 -12.743,-40.805c-7.834,-9.332 -18.434,-15.93 -30.265,-18.84c-2.39,-0.592 -5.109,-1.119 -7.562,-1.34c-0.57,-0.701 -1.118,-1.419 -1.644,-2.154c1.689,0.08 3.233,0.306 4.909,0.548c2.279,0.44 4.09,0.778 6.363,1.4c8.072,2.207 15.575,6.125 21.998,11.489c11.949,9.784 19.497,23.934 20.967,39.307c1.387,15.361 -3.443,30.637 -13.407,42.41c-9.757,11.639 -24.525,19.956 -39.736,21.279c-15.241,1.272 -30.366,-3.53 -42.083,-13.359c-12.597,-10.621 -20.209,-24.388 -21.596,-40.913c-1.216,-14.483 3.912,-29.944 13.283,-41.022c10.139,-12.152 24.715,-19.747 40.484,-21.095Z" style="fill:#d5d4ec;fill-rule:nonzero;"/><path d="M68.681,11.317c6.649,1.006 13.041,3.292 18.821,6.73c11.735,7.037 20.172,18.47 23.438,31.758c3.191,13.06 1.046,26.852 -5.959,38.327c-7.232,11.801 -18.833,20.268 -32.278,23.554c-12.472,3.043 -26.513,0.503 -37.424,-6.152c-11.861,-7.261 -20.337,-18.952 -23.549,-32.484c-3.06,-12.764 -0.571,-26.65 6.274,-37.798c5.71,-9.392 14.313,-16.679 24.517,-20.767c2.892,-1.139 5.631,-1.873 8.642,-2.592c1.092,-0.254 2.009,-0.441 3.123,-0.557c0.425,0.553 0.889,1.285 1.285,1.873c-8.414,1.178 -15.927,4 -22.834,9.023c-10.477,7.615 -17.522,19.061 -19.599,31.846c-2.053,12.821 1.098,25.932 8.753,36.421c7.715,10.626 19.319,17.77 32.281,19.872c12.586,1.895 25.411,-1.248 35.695,-8.747c10.679,-7.713 17.837,-19.37 19.886,-32.384c1.964,-12.896 -1.289,-26.043 -9.041,-36.536c-5.984,-8.063 -14.29,-14.105 -23.803,-17.317c-3.308,-1.104 -6.196,-1.71 -9.617,-2.227c0.465,-0.619 0.858,-1.281 1.389,-1.844Z" style="fill:#d5d4ec;fill-rule:nonzero;"/><path d="M9.496,91.289c0.335,-0.014 0.667,0.076 0.853,0.371c2.195,3.473 4.437,6.661 7.257,9.68c10.97,11.745 25.712,19.172 41.895,19.736c17.07,0.457 33.507,-6.473 45.097,-19.014c1.777,-1.876 3.441,-3.855 4.983,-5.929c0.902,-1.232 1.694,-2.533 2.537,-3.804c0.314,-0.473 0.72,-1.028 1.346,-0.98c0.776,0.399 0.29,1.169 0.004,1.732c-0.729,1.147 -1.481,2.279 -2.255,3.398c-9.383,13.405 -23.672,22.571 -39.767,25.515c-15.607,2.638 -31.621,-1.064 -44.487,-10.285c-6.395,-4.5 -11.899,-10.148 -16.232,-16.658c-0.471,-0.711 -1.441,-2.027 -1.648,-2.846c-0.085,-0.337 0.211,-0.67 0.417,-0.917Z" style="fill:#d5d4ec;fill-rule:nonzero;"/><path d="M61.386,0c0.47,0.378 1.819,2.385 2.289,3.03c1.528,2.097 2.963,4.278 4.563,6.325c-2.264,3.077 -4.347,6.337 -6.669,9.385c-0.057,-0.006 -0.115,-0.013 -0.172,-0.019c-0.52,-0.501 -1.654,-2.099 -2.09,-2.728c-1.532,-2.214 -3.033,-4.416 -4.592,-6.617c0.787,-0.955 1.683,-2.309 2.407,-3.346c1.394,-2.029 2.816,-4.039 4.264,-6.029Zm-4.817,9.44c0.785,0.936 4.401,6.205 4.913,6.556c1.739,-2.17 3.137,-4.487 4.794,-6.649c-0.519,-0.707 -4.554,-6.427 -4.876,-6.654c-1.602,2.231 -3.266,4.495 -4.83,6.746Z" style="fill:#d5d4ec;fill-rule:nonzero;"/><path d="M61.421,4.794c0.359,0.182 2.9,3.91 3.305,4.487c-0.815,1.316 -2.295,3.307 -3.252,4.543c-0.558,-0.395 -2.785,-3.775 -3.287,-4.524c1.087,-1.486 2.088,-3.068 3.234,-4.506Zm-2.202,4.504c0.488,0.738 1.624,2.523 2.212,3.129c0.768,-1.031 1.511,-2.08 2.229,-3.146c-0.416,-0.591 -1.792,-2.626 -2.215,-3.026l-2.226,3.042Z" style="fill:#d5d4ec;fill-rule:nonzero;"/><path d="M34.463,57.954c0.326,-0.091 0.675,0.002 0.913,0.242c0.238,0.24 0.327,0.59 0.233,0.915c-0.094,0.325 -0.357,0.573 -0.686,0.649c-0.494,0.114 -0.988,-0.187 -1.113,-0.678c-0.125,-0.491 0.165,-0.992 0.653,-1.128Z" style="fill:#d5d4ec;fill-rule:nonzero;"/><path d="M47.89,36.736c0.503,-0.078 0.974,0.268 1.049,0.772c0.075,0.504 -0.276,0.972 -0.78,1.043c-0.499,0.07 -0.961,-0.276 -1.035,-0.774c-0.074,-0.499 0.269,-0.963 0.767,-1.041Z" style="fill:#d5d4ec;fill-rule:nonzero;"/><path d="M51.539,94.508c0.484,-0.107 0.964,0.195 1.077,0.678c0.113,0.482 -0.183,0.967 -0.664,1.086c-0.317,0.078 -0.652,-0.019 -0.876,-0.257c-0.224,-0.237 -0.304,-0.577 -0.208,-0.888c0.096,-0.312 0.352,-0.549 0.671,-0.619Z" style="fill:#d5d4ec;fill-rule:nonzero;"/><path d="M63.846,90.223c0.469,-0.152 0.973,0.099 1.134,0.566c0.161,0.466 -0.08,0.975 -0.542,1.146c-0.307,0.114 -0.653,0.052 -0.902,-0.161c-0.25,-0.213 -0.365,-0.545 -0.3,-0.867c0.064,-0.322 0.298,-0.583 0.61,-0.684Z" style="fill:#d5d4ec;fill-rule:nonzero;"/><path d="M83.117,39.978c0.462,-0.172 0.975,0.059 1.153,0.518c0.178,0.459 -0.048,0.976 -0.506,1.158c-0.3,0.12 -0.641,0.069 -0.894,-0.134c-0.253,-0.202 -0.377,-0.524 -0.325,-0.843c0.051,-0.319 0.269,-0.586 0.572,-0.699Z" style="fill:#d5d4ec;fill-rule:nonzero;"/><path d="M72.271,92.324c0.293,-0.063 0.598,0.036 0.798,0.259c0.199,0.223 0.264,0.537 0.169,0.821c-0.096,0.284 -0.336,0.495 -0.631,0.552c-0.449,0.087 -0.883,-0.203 -0.975,-0.65c-0.092,-0.447 0.193,-0.885 0.639,-0.982Z" style="fill:#d5d4ec;fill-rule:nonzero;"/><path d="M64.497,25.167c1.305,0.033 1.368,0.99 0.288,1.664c-1.248,-0.161 -1.289,-0.997 -0.288,-1.664Z" style="fill:#d5d4ec;fill-rule:nonzero;"/><path d="M79.156,88.575c1.071,-0.023 1.488,0.604 0.567,1.37c-1.082,0.036 -1.395,-0.595 -0.567,-1.37Z" style="fill:#d5d4ec;fill-rule:nonzero;"/><path d="M76.646,34.424c0.336,0.074 0.445,0.119 0.657,0.37c0.195,0.575 -0.181,0.869 -0.605,1.162c-1.305,-0.204 -0.768,-1.015 -0.052,-1.532Z" style="fill:#d5d4ec;fill-rule:nonzero;"/><path d="M44.895,90.115c0.971,0 1.515,0.343 0.875,1.31c-1.031,0.253 -1.333,-0.432 -0.875,-1.31Z" style="fill:#d5d4ec;fill-rule:nonzero;"/><path d="M61.693,99.126c0.098,0.028 0.295,0.085 0.38,0.13c0.177,0.092 0.299,0.262 0.331,0.458c0.061,0.411 -0.332,0.829 -0.573,1.101c-1.078,-0.411 -0.812,-1.034 -0.138,-1.689Z" style="fill:#d5d4ec;fill-rule:nonzero;"/><path d="M85.531,54.421c0.921,0.221 1.334,0.657 0.734,1.553c-1.139,0.066 -1.168,-0.756 -0.734,-1.553Z" style="fill:#d5d4ec;fill-rule:nonzero;"/><path d="M77.222,42.475c0.979,0.134 1.234,0.589 0.843,1.502c-1.01,-0.044 -1.277,-0.595 -0.843,-1.502Z" style="fill:#d5d4ec;fill-rule:nonzero;"/><path d="M38.399,48.774c0.874,0.083 1.418,0.41 0.903,1.334c-0.996,0.064 -1.313,-0.462 -0.903,-1.334Z" style="fill:#d5d4ec;fill-rule:nonzero;"/></g></svg>