<?xml version="1.0" encoding="UTF-8" standalone="no"?><!DOCTYPE svg PUBLIC "-//W3C//DTD SVG 1.1//EN" "http://www.w3.org/Graphics/SVG/1.1/DTD/svg11.dtd"><svg width="100%" height="100%" viewBox="0 0 123 123" version="1.1" xmlns="http://www.w3.org/2000/svg" xmlns:xlink="http://www.w3.org/1999/xlink" xml:space="preserve" xmlns:serif="http://www.serif.com/" style="fill-rule:evenodd;clip-rule:evenodd;stroke-linejoin:round;stroke-miterlimit:2;"><g><path d="M49.908,45.032c1.509,-3.325 3.255,-5.862 6.179,-8.134c3.33,-2.548 7.348,-4.04 11.533,-4.283c0.821,-0.05 3.209,0.082 3.779,-0.06c2.049,-0.51 2.128,-1.36 4.635,-1.031c1.988,0.275 3.786,1.327 5,2.925c1.283,1.659 1.842,3.767 1.546,5.843c-0.434,2.94 -2.156,4.903 -4.457,6.587c3.482,1.203 7.012,2.467 10.079,4.555c3.525,2.399 6.96,5.873 7.815,10.191c-0.142,0.247 -0.14,0.266 -0.184,0.553l-0.155,0.152c-3.438,-7.316 -8.043,-9.948 -15.549,-12.806c-0.734,-0.28 -1.871,-0.675 -2.603,-0.872c-1.867,-0.502 -3.061,-0.397 -4.36,-2.027c1.417,-0.229 2.953,-0.388 4.216,-1.095c2.576,-1.44 3.936,-4.534 3.465,-7.421c-0.503,-3.082 -3.282,-5.428 -6.451,-4.895c-2.692,0.467 -4.805,3.275 -4.22,6.004c0.234,1.088 0.806,2.129 1.766,2.737c0.788,0.504 1.794,0.814 2.722,0.586c0.868,-0.212 1.7,-0.783 2.161,-1.546c0.362,-0.595 0.474,-1.309 0.308,-1.986c-0.721,-2.921 -3.805,-1.57 -3.454,-0.221c0.686,0.86 1.505,0.204 1.567,1.091c-0.499,1.066 -1.923,0.424 -2.619,-0.097l-0.054,-0.114c-1.202,-2.565 1.375,-4.858 3.856,-3.909c2.272,0.869 2.915,3.373 2.033,5.52c-0.502,1.19 -1.456,2.133 -2.653,2.621c-1.256,0.512 -2.637,0.432 -3.876,-0.091c-1.409,-0.59 -2.517,-1.73 -3.066,-3.156c-0.669,-1.694 -0.555,-3.509 0.183,-5.161c0.225,-0.509 0.509,-0.99 0.845,-1.433c-5.899,0.025 -11.97,1.894 -15.666,6.8c4.652,-1.408 8.11,-1.847 12.67,0.481c3.322,1.696 5.271,4.606 6.568,8.016c0.675,0.502 1.174,0.953 1.754,1.556c4.183,4.353 5.998,9.485 5.544,15.489c1.065,-0.03 1.91,-0.053 2.971,0.131c4.568,0.793 7.623,4.742 7.693,9.305c0.029,2.368 -0.878,4.653 -2.525,6.355c-1.49,1.546 -3.541,2.424 -5.688,2.434c-2.039,0.01 -3.98,-0.73 -5.422,-2.185c-1.434,-1.47 -2.233,-3.444 -2.226,-5.497c0.018,-3.558 2.791,-6.864 6.489,-6.786c1.6,0.037 3.121,0.708 4.226,1.866c2.045,2.145 2.195,5.424 0.074,7.618c-2.489,2.576 -7.437,1.157 -7.255,-2.592c0.045,-0.917 0.455,-1.777 1.139,-2.389c0.952,-0.851 2.793,-1.139 3.582,-0.1c1.065,1.402 0.711,2.24 -0.696,2.917c0.168,-1.673 -0.113,-2.764 -2.002,-1.813c-0.647,1.28 -0.837,2.618 0.697,3.391c0.723,0.355 1.558,0.405 2.318,0.137c2.245,-0.778 2.453,-2.935 1.788,-4.936c-0.72,-2.166 -3.729,-3.044 -5.675,-2.211c-4.582,1.961 -4.031,9.045 0.631,10.625c3.691,1.325 7.027,-0.523 8.473,-3.971c1.786,-4.437 -1.106,-9.792 -5.817,-10.631c-4.245,-0.756 -8.266,1.584 -9.738,5.615c-0.909,2.56 -0.757,5.377 0.424,7.824c1.094,2.327 3.085,4.113 5.518,4.948c2.681,0.951 5.631,0.79 8.193,-0.447c2.677,-1.342 4.702,-3.703 5.619,-6.553c1.577,-4.768 0.63,-10.058 -1.586,-14.467c-2.981,-5.932 -7.779,-9.128 -13.094,-12.697c1.364,0.403 2.788,0.803 4.08,1.398c9.125,4.207 15.281,15.939 12.346,25.803c-1.008,3.3 -3.272,6.072 -6.306,7.716c-2.386,1.278 -4.38,1.495 -6.986,1.463c-2.189,3.365 -4.156,5.9 -7.625,8.108c-0.716,0.456 -1.905,1.185 -2.672,1.485c0.044,-0.171 0.075,-0.27 0.085,-0.45l-0.311,-0.17c0.236,-0.199 0.614,-0.482 0.869,-0.659c3.441,-2.394 5.738,-5.089 7.9,-8.696c-2.476,-0.831 -2.685,-0.969 -4.789,-2.55c-0.623,1.06 -1.085,2.213 -1.781,3.34c-3.04,4.93 -7.137,9.123 -11.996,12.275c-1.136,0.729 -6.901,4.065 -8.098,3.746c-0.154,-0.042 -0.271,-0.106 -0.344,-0.253c-0.359,-0.714 0.655,-3.138 0.923,-3.931c0.785,-0.54 1.956,-1.132 2.821,-1.62c-0.334,0.968 -0.808,2.064 -1.198,3.024c7.722,-3.574 13.883,-9.247 17.711,-16.849c0.209,-0.414 0.422,-0.826 0.628,-1.241c-1.652,-2.032 -2.681,-5.604 -2.397,-8.185c0.358,-3.261 1.822,-5.737 4.301,-7.804c0.634,-3.169 0.733,-5.27 0.506,-8.445c1.419,2.298 1.297,5.007 1.22,7.561c0.465,-0.223 0.935,-0.408 1.413,-0.601c0.176,-1.672 0.137,-2.868 -0.095,-4.533c-0.431,-3.094 -2.337,-8.084 -4.919,-9.975c0.123,2.772 -0.022,4.655 -0.894,7.388c-1.851,5.807 -8.656,12.049 -14.821,8.01c-0.314,-0.206 -0.863,-1.044 -1.096,-1.128c-0.242,0.585 1.018,2.055 1.396,2.435c2.703,2.72 6.411,2.061 9.548,0.667c-0.244,0.274 -0.502,0.536 -0.774,0.784c-3.178,2.906 -7.522,2.208 -10.298,-0.884c-1.689,-1.88 -2.101,-4.679 -1.375,-7.052c0.176,-0.578 0.74,-1.339 0.775,-1.928l-0.116,-0.055c-1.395,0.678 -2.833,2.964 -3.059,4.446c-0.962,6.332 4.478,12.896 10.538,14.206c2.448,0.529 4.437,-0.95 6.324,-2.206c-0.174,1.324 -1.013,2.321 -1.855,3.314c-6.349,7.443 -15.357,14.195 -25.454,14.683c-4.894,0.237 -10.352,-1.142 -13.78,-4.798c-7.276,-7.758 -3.298,-19.637 3.09,-26.515c0.297,0.546 0.466,0.909 0.705,1.484c-0.255,0.373 -0.514,0.742 -0.77,1.116c-3.575,5.213 -4.659,12.519 -1.019,17.998c1.992,3.001 5.333,4.829 8.83,5.473c4.382,0.806 8.832,-0.567 12.622,-2.738c0.987,-0.567 1.961,-1.349 2.912,-2.002c-1.153,2.456 -3.478,4.774 -5.734,6.235c-0.729,0.472 -1.775,0.962 -2.416,1.491l-0.073,0.06c5.574,-1.343 10.051,-4.11 14.355,-7.835c1.387,-1.2 2.618,-2.262 3.774,-3.688c-0.328,0.114 -0.656,0.223 -0.987,0.326c-3.469,1.049 -8.714,1.368 -12.016,-0.41c0.117,-0.449 0.221,-0.914 0.329,-1.366c3.919,1.293 5.439,1.452 9.537,0.762c-0.518,-0.234 -1.037,-0.463 -1.545,-0.709c-5.815,-2.811 -10.592,-9.817 -8.393,-16.396c1.084,-3.243 4.404,-5.872 7.918,-4.741c1.064,0.342 1.676,1.231 2.116,2.186c-0.825,-0.301 -1.317,-0.878 -2.349,-0.926c-0.568,-0.031 -1.124,0.171 -1.54,0.559c-0.598,0.566 -1.012,1.628 -1.034,2.446c-0.029,1.1 0.39,2.164 1.161,2.948c0.971,0.979 2.287,1.537 3.665,1.554c3.414,0.025 5.432,-3.544 5.421,-6.608c-0.008,-2.376 -1.134,-4.58 -2.793,-6.236c-1.929,-1.926 -4.583,-2.796 -7.276,-2.744c-3.516,0.1 -6.853,1.577 -9.291,4.113c-2.788,2.91 -4.359,7.095 -4.269,11.118c-2.023,0.155 -3.6,0.419 -5.267,1.702c-2.035,1.599 -3.35,3.942 -3.654,6.513c-0.535,4.466 2.034,8.927 6.734,9.393c4.035,0.401 7.495,-2.237 7.894,-6.291c0.169,-1.799 -0.371,-3.592 -1.506,-4.998c-1.937,-2.363 -5.246,-3.127 -7.652,-1.046c-2.22,1.773 -2.695,5.076 -0.83,7.293c1.292,1.537 3.637,1.862 5.164,0.468c0.696,-0.628 1.111,-1.508 1.156,-2.445c0.032,-0.712 -0.154,-1.484 -0.666,-2.022c-0.806,-0.846 -2.579,-1.134 -3.163,0.119c-0.129,0.277 -0.21,0.818 -0.192,1.119c0.013,0.217 0.111,0.283 0.261,0.411c0.541,0.155 0.966,-0.118 1.468,-0.355c0.304,0.153 0.49,0.606 0.305,0.858c-1.916,2.613 -4.347,-0.228 -3.209,-2.694c0.355,-0.772 1.008,-1.366 1.81,-1.644c1.986,-0.697 4.167,0.774 4.779,2.677c0.387,1.231 0.271,2.566 -0.324,3.712c-0.593,1.171 -1.631,2.056 -2.882,2.455c-3.096,0.984 -6.036,-1.017 -6.909,-4.023c-0.501,-1.769 -0.28,-3.665 0.616,-5.271c0.837,-1.548 2.271,-2.686 3.968,-3.15c1.848,-0.505 3.875,-0.198 5.526,0.759c1.801,1.066 3.106,2.805 3.625,4.833c0.58,2.267 0.234,4.672 -0.962,6.683c-1.143,1.965 -3.024,3.392 -5.224,3.963c-5.247,1.318 -10.032,-2.054 -11.229,-7.191c-0.664,-2.923 -0.14,-5.989 1.457,-8.525c1.748,-2.794 4.22,-4.128 7.333,-4.861c-0.014,-1.216 0.284,-2.702 0.629,-3.87c2.264,-7.642 10.389,-13.302 18.362,-10.828c2.883,0.885 5.284,2.9 6.657,5.585c1.296,2.503 1.396,4.862 0.506,7.532l-0.037,0.108l0.055,0.077c0.02,-0.012 0.041,-0.024 0.062,-0.035c4.749,-5.086 5.069,-14.374 -0.018,-19.376c-5.535,-5.441 -13.202,-3.584 -18.891,0.302Zm-4.108,46.616l0.785,-0.308c0.376,-0.158 0.578,-0.246 0.856,-0.551c-0.842,0.188 -1.687,0.363 -2.535,0.528c-8.884,0.804 -16.669,-4.194 -17.326,-13.547c-0.042,-0.591 -0.082,-1.343 -0.192,-1.921c-0.325,1.609 -0.515,2.953 -0.487,4.598c0.102,5.95 3.972,10.926 9.907,12.069c3.019,0.572 6.138,0.27 8.992,-0.869Z" style="fill:#535353;fill-rule:nonzero;"/><path d="M47.441,90.789c-0.277,0.304 -0.48,0.393 -0.856,0.551l-0.785,0.308l0.174,-0.246l-0.168,-0.08c-0.397,0.041 -0.512,0.03 -0.899,-0.005c0.847,-0.165 1.692,-0.34 2.535,-0.528Z" style="fill:#535353;fill-opacity:0.17;fill-rule:nonzero;"/><path d="M91.328,22.339c1.476,0.825 3.644,2.793 4.88,3.975c6.68,6.274 11.522,14.253 14.002,23.075c1.177,4.167 1.938,8.953 1.961,13.283c0.647,-0.723 1.543,-2.269 2.29,-3.211c-0.057,-0.812 -0.174,-1.96 -0.179,-2.748c0.478,-0.441 0.986,-0.974 1.489,-1.357c1.114,-0.848 2.144,-1.537 3.216,-2.454c0.074,1.258 0.344,2.444 0.488,3.682c1.251,10.713 -0.777,22.769 -5.577,32.462c-1.798,-2.247 -0.806,-2.158 -3.723,-3.002c-0.205,0.321 -0.415,0.645 -0.609,0.971c0.769,2.119 1.957,5.598 0.956,7.804c-0.375,0.824 -1.58,2.486 -2.136,3.231c-2.747,3.761 -5.938,7.177 -9.503,10.175c-0.475,0.399 -1.53,1.339 -2.063,1.508c-0.723,0.231 -2.24,0.547 -2.981,0.574l-0.392,-0.645c-1.635,0.331 -2.728,0.648 -4.239,-0.235c-0.885,0.376 -2.582,1.171 -3.416,1.422c-0.223,0.983 -0.379,1.961 -0.544,2.955c-0.535,0.439 -1.035,0.819 -1.619,1.193c-0.45,0.288 -1.215,0.595 -1.444,1.075c-0.42,0.882 -0.693,1.836 -1.083,2.736c-3.223,0.965 -6.29,2.142 -9.623,2.676c-0.66,0.106 -1.557,0.387 -2.21,0.271c-0.419,-0.376 0.108,-1.755 0.308,-2.219c1.408,-0.399 3.557,-0.86 5.017,-1.132c0.81,-0.267 1.914,-0.538 2.769,-0.791c0.939,-0.481 2.494,-0.771 3.685,-1.332c0.645,-1.365 1.968,-2.157 3.199,-3.151c0.35,-1.793 0.606,-3.014 1.105,-4.766c-2.304,1.513 -7.146,3.313 -9.874,4.196c-1.167,0.378 -4.531,0.939 -5.239,1.482c-0.21,0.161 -0.4,0.365 -0.677,0.364c-0.083,-0.941 1.054,-0.659 1.242,-2.465c1.743,-1.199 3.838,-1.445 5.79,-2.122c4.445,-1.541 8.287,-3.696 12.192,-6.267c-0.148,0.932 -0.641,2.729 -1.299,3.401c-0.696,0.711 -1.834,2.3 -1.457,3.377l0.148,0.061c0.305,-0.104 0.376,-0.282 0.562,-0.557c1.075,-0.4 1.593,-0.676 2.586,-1.22c0.524,0.127 1.05,0.265 1.573,0.398l0.576,-0.479l0.167,0.457l0.144,0.054l0.172,-0.112c0.978,-0.189 1.386,-0.286 2.329,0.008c1.345,-0.747 2.761,-2.068 3.903,-3.083c3.755,-3.339 9.972,-10.261 11.803,-14.837c-0.281,-1.157 -0.975,-2.446 -1.32,-3.807c0.448,-1.012 1.671,-3.069 2.31,-3.982c-0.243,-1.289 -0.842,-2.631 -1.199,-3.938c-1.272,-1.087 -2.893,-1.793 -4.097,-2.799c-0.099,-0.755 -0.126,-1.567 -0.168,-2.33c-0.86,-0.359 -1.641,-0.68 -2.52,-0.987l-0.222,-0.677c0.011,-0.18 0.027,-0.36 0.047,-0.539l0.348,0.269c0.76,1.257 1.685,0.914 2.903,1.441c0.341,0.745 0.411,1.469 0.517,2.279c0.382,0.336 0.642,0.649 1.147,0.65c0.394,-0.24 0.403,-0.444 0.513,-0.873c3.223,-12.635 1.401,-26.72 -5.546,-37.903c-2.059,-3.253 -4.457,-6.279 -7.151,-9.028c-1.14,-1.151 -2.98,-2.448 -3.841,-3.726c-0.072,-1.083 -0.104,-1.667 -0.386,-2.731Zm18.54,55.705c0.318,0.72 1.639,4.463 1.767,5.163c-0.337,0.868 -0.797,1.463 -1.14,2.25c0.745,0.288 1.496,0.434 2.275,0.609c0.528,-1.695 1.347,-3.48 1.925,-5.228c1.434,-4.49 2.335,-9.133 2.685,-13.834c0.034,-0.513 0.189,-2.572 0.074,-2.947l-0.034,-0.11c0.173,-0.393 0.256,-2.289 0.041,-2.613c-0.023,-1.713 -0.092,-3.744 -0.412,-5.42c-0.539,0.362 -1.081,0.721 -1.625,1.076c-0.028,0.692 -0.218,2.158 0.156,2.625l-0.285,0.225c-1.119,1.338 -1.952,2.478 -3.147,3.81c-0.165,3.922 -0.355,7.386 -1.404,11.2c-0.316,1.149 -0.446,2.018 -0.875,3.193Z" style="fill:#535353;fill-rule:nonzero;"/><path d="M77.364,117.614c-0.745,1.097 -1.592,0.754 -2.769,0.791c0.81,-0.267 1.914,-0.538 2.769,-0.791Z" style="fill:#535353;fill-rule:nonzero;"/><path d="M116.172,60.188l0.043,0.086c0.561,1.163 0.07,2.698 0.933,3.303l0.18,0.01c0.319,-0.412 0.074,-1.668 0.132,-2.254c0.215,0.324 0.132,2.22 -0.041,2.613l0.034,0.11c-0.37,-0.219 -0.761,-0.499 -1.12,-0.745c-0.044,-0.697 -0.084,-1.273 -0.182,-1.968c0.083,-0.501 0.063,-0.646 0.021,-1.156Z" style="fill:#535353;fill-opacity:0.89;fill-rule:nonzero;"/><path d="M115.579,59.615c0.263,0.076 0.447,0.342 0.593,0.573c0.042,0.51 0.062,0.655 -0.021,1.156c-0.157,-0.564 -0.452,-1.081 -0.857,-1.504l0.285,-0.225Z" style="fill:#535353;fill-opacity:0.98;fill-rule:nonzero;"/><path d="M18.016,88.72c0.587,0.25 1.77,2.258 2.211,2.882c1.009,1.432 2.105,2.802 3.281,4.101c3.751,4.204 8.172,7.757 13.084,10.516c0.808,0.458 1.751,1.016 2.583,1.404c0.293,-0.671 0.671,-1.412 0.993,-2.078c1.566,0.027 3.141,-0.153 4.714,-0.098c-1.399,0.379 -2.828,0.634 -4.271,0.761c-0.738,1.338 -1.365,2.313 -2.441,3.422c-1.004,0.109 -3.346,0.42 -4.089,0.989c-0.029,0.163 0.005,0.218 0.059,0.373l0.02,0.055c-0.331,-0.252 -0.451,-0.244 -0.841,-0.309c-0.989,-0.166 -1.587,-0.831 -2.265,-1.506c-0.936,0.26 -1.878,0.5 -2.824,0.72c1.756,1.411 4.808,2.992 6.76,4.158c-0.238,-1.127 -0.428,-2.186 -0.894,-3.242c1.226,1.002 1.402,1.79 1.577,3.391c1.197,0.764 2.877,1.435 4.204,1.961c6.612,2.617 13.667,3.929 20.776,3.867c1.013,-0.003 3.854,0.044 4.695,-0.285c0.978,-0.383 3.365,-2.819 4.178,-3.637c-0.775,-0.578 -1.358,-1.155 -2.026,-1.841c-5.609,0.435 -9.4,0.659 -15.129,-0.237c-3.603,-0.566 -9.199,-2.037 -12.547,-3.691c0.182,-0.647 0.535,-1.38 0.826,-1.991c1.148,0.302 2.927,1.095 4.179,1.5c3.776,1.249 7.683,2.058 11.644,2.412c1.968,0.177 3.945,0.24 5.92,0.189c1.101,-0.032 4.753,-0.563 5.361,-0.403c-0.159,0.173 -0.182,0.175 -0.26,0.404c0.567,1.556 1.345,1.617 2.487,2.712c0.275,0.264 0.588,0.485 0.602,0.863c-0.413,0.33 -0.56,0.886 -1.101,1.325c-1.093,0.888 -2.299,1.303 -2.882,2.675c-0.333,0.782 -0.432,1.394 -0.878,2.138c-3.172,0.438 -8.867,0.186 -11.911,-0.151c-11.091,-1.256 -21.591,-5.66 -30.259,-12.692c-0.9,-0.728 -3.702,-3.081 -4.364,-3.908c-0.087,-1.731 0.107,-3.462 -0.063,-5.143c-0.122,-1.203 -1.55,-2.541 -1.671,-3.716c-0.083,-0.805 1.069,-2.3 1.598,-2.852c-0.479,-0.676 -0.801,-1.147 -1.212,-1.866c0.247,-1.114 -0.056,-2.438 0.175,-3.176Zm0.18,7.913c0.618,1.111 1.916,2.784 1.924,4.065c0.004,0.671 -0.391,1.432 -0.171,2.078c0.432,1.27 6.396,5.952 7.825,6.752c1.122,-0.365 2.381,-0.752 3.539,-0.982c0.433,0.319 1.491,1.246 2.009,1.198c0.068,-0.007 0.388,-0.102 0.462,-0.126c1.147,-0.445 1.635,-0.681 2.858,-0.854c-4.577,-2.09 -10.252,-6.695 -13.691,-10.307c-0.756,-0.81 -1.48,-1.649 -2.17,-2.515c-0.188,-0.231 -0.907,-1.155 -1.085,-1.313c-0.51,0.769 -0.871,1.307 -1.5,2.004Z" style="fill:#535353;fill-rule:nonzero;"/><path d="M49.215,120.862c0.464,-0.068 0.807,-0.092 1.246,0.082c-0.514,0.079 -0.769,0.119 -1.246,-0.082Z" style="fill:#535353;fill-rule:nonzero;"/><path d="M8.105,35.485c0.427,1.274 0.83,3.88 1.125,5.351c0.69,-0.114 1.245,-0.201 1.946,-0.26c0.345,1.022 0.785,3.563 1.027,4.725c0.235,-0.614 0.467,-1.349 0.677,-1.975c0.099,0.981 0.358,1.189 0.801,2.092c0.768,0.488 1.805,1.036 2.614,1.492c-0.038,0.975 -0.143,2.02 -0.224,2.998c0.84,0.831 1.603,1.541 2.277,2.519l-0.204,0.349c-0.801,-0.73 -2.052,-1.385 -2.994,-2.275c0.18,-0.796 0.249,-2.095 0.325,-2.951c-0.554,-0.441 -0.835,-0.59 -1.474,-0.897c-2.282,6.649 -2.921,12.2 -2.682,19.17c-0.81,0.708 -1.98,1.352 -2.639,1.997c-0.417,1.941 -0.452,3.403 -1.649,5.057c0.748,1.073 1.321,1.691 2.397,2.471c-0.403,1.219 -0.932,2.392 -1.578,3.501c0.162,-0.986 0.594,-2.311 0.891,-3.287c-0.616,-0.753 -1.406,-1.603 -2.06,-2.335c-0.302,0.252 -0.535,0.538 -0.793,0.834c-0.859,-0.55 -1.72,-1.094 -2.586,-1.633l-1.007,1.226c-2.815,-12.404 -0.223,-27.093 5.809,-38.17Zm-2.22,37.489c0.208,-0.328 0.456,-0.696 0.65,-1.027c0.806,-1.483 1.21,-2.817 1.252,-4.524c0.682,-0.62 1.309,-1.048 1.262,-2.063c-0.298,-6.477 0.486,-12.752 2.719,-18.906c-0.343,-1.649 -0.766,-3.28 -1.27,-4.887c-0.46,0.128 -1.393,0.467 -1.779,0.291c-0.293,-0.33 -0.582,-0.905 -0.635,-0.953c-3.504,8.159 -5.025,17.033 -4.438,25.893c0.084,1.357 0.142,3.341 0.559,4.614c0.209,0.638 1.12,1.181 1.679,1.562Z" style="fill:#535353;fill-rule:nonzero;"/><path d="M3.297,55.412l0.139,0.124c0.152,0.311 0.111,0.518 0.1,0.867l-0.116,-0.089c-0.131,-0.281 -0.111,-0.584 -0.123,-0.902Z" style="fill:#535353;fill-rule:nonzero;"/><path d="M11.223,30.222c1.055,-1.617 2.198,-3.174 3.426,-4.664c7.843,-9.564 18.489,-16.426 30.439,-19.619c3.355,-0.853 6.773,-1.439 10.22,-1.754c-0.545,0.831 -1.184,1.644 -1.789,2.437c-0.976,0.166 -2.001,0.305 -2.985,0.457c-0.619,0.689 -1.303,1.003 -1.842,1.749c-1.073,1.482 1.135,1.353 1.279,2.61c0.09,0.777 -0.49,1.445 -0.924,2.039c2.584,-0.362 2.705,-0.824 4.188,1.533c-14.076,1.954 -26.807,10.103 -34.397,22.133c-1.5,2.378 -2.606,4.653 -3.838,7.16c-0.326,-0.834 -0.626,-2.293 -0.839,-3.215c0.05,-0.132 0.102,-0.264 0.154,-0.395c0.61,-1.532 1.96,-3.738 2.865,-5.141c5.308,-8.197 12.86,-14.697 21.756,-18.726c1.748,-0.789 3.45,-1.457 5.272,-2.047c1.253,-0.406 2.935,-0.697 4.09,-1.224c0.677,-1.501 1.739,-2.107 -0.118,-2.973c-0.763,0.146 -1.919,0.304 -2.652,0.011c0.071,-0.32 -0.008,-0.192 0.235,-0.401c0.298,0.098 1.401,-0.029 1.769,-0.06c0.818,-1.299 0.488,-1.499 1.738,-2.783c-1.678,0.372 -3.35,0.773 -5.015,1.202c-0.158,0.037 -0.169,0.043 -0.317,0.114c-10.939,3.58 -19.518,8.985 -27.074,17.812c-0.968,1.131 -3.294,3.996 -3.953,5.251l0.019,0.118c0.21,1.288 1.162,2.115 0.662,3.41c-0.197,0.511 -0.392,1.003 -0.628,1.5l-0.144,-0.045c-0.094,-0.323 0.047,-0.611 0.043,-1.06l-0.001,-0.075c0.441,-1.593 -0.17,-1.54 -0.726,-2.931c-0.311,-0.778 -0.609,-1.63 -0.912,-2.42l-0,0Z" style="fill:#535353;fill-rule:nonzero;"/><path d="M68.329,4.408c7.779,1.205 14.979,3.335 21.83,7.341c0.224,0.733 0.681,2.401 1.04,2.979c-0.23,0.731 -0.381,1.218 -0.755,1.906c0.397,0.769 0.915,2.341 1.418,2.81l0.197,0.045c0.503,-0.551 -0.168,-2.145 -0.397,-2.785c1.249,-0.386 2.887,-0.907 4.157,-1.143c1.428,0.904 3.038,2.254 4.301,3.376c6.303,5.665 11.325,12.61 14.73,20.371c0.494,1.134 1.155,2.636 1.498,3.812c-0.842,1.493 -1.888,3.906 -1.863,5.614c0.013,0.913 0.158,1.809 0.012,2.728c-0.109,0.682 -0.888,1.603 -0.982,2.205c0.207,0.564 0.96,1.44 1.353,2.285c-0.815,-0.608 -0.788,-0.71 -1.365,-1.533c-0.13,-0.184 -0.553,-0.2 -0.602,-0.634c-0.073,-0.646 0.496,-1.54 0.81,-2.059c-0.339,-2.848 -0.851,-4.391 0.823,-6.973c-1.925,-6.047 -6.018,-13.085 -10.011,-17.928c-0.504,-0.612 -1.729,-2.183 -2.324,-2.618c-0.636,0.021 -1.055,1.122 -1.329,1.653c-0.128,-0.1 -0.158,-0.149 -0.261,-0.272c0.32,-0.763 0.601,-1.456 0.883,-2.234c-2.758,-2.723 -4.38,-3.935 -7.361,-6.304l-1.412,0.321c0.039,0.371 0.666,2.332 0.506,2.442c-1.139,0.786 -2.557,1.494 -3.784,2.199l0.729,2.029c-5.852,-4.251 -15.155,-8.399 -22.403,-9.004l1.603,-2.064c2.083,0.249 4.999,1.056 7.007,1.678l1.22,0.366c2.876,1.005 5.662,2.251 8.329,3.723c1.157,0.633 2.509,1.526 3.643,2.1c0.786,-0.285 1.307,-0.648 1.919,-1.225c-0.552,-1.05 -1.409,-2.24 -1.857,-3.136c0.278,-0.992 0.331,-1.34 0.126,-2.348c-5.653,-3.235 -11.784,-5.55 -18.164,-6.861c-1.668,-0.33 -3.394,-0.484 -5.07,-0.76c1.085,-0.749 1.236,-0.929 1.808,-2.101Z" style="fill:#535353;fill-rule:nonzero;"/><path d="M76.374,14.651l1.22,0.366c-0.46,0.038 -1.338,0.684 -1.705,0.079c0.121,-0.38 0.053,0.063 0.484,-0.445Z" style="fill:#535353;fill-rule:nonzero;"/><path d="M62.097,28.571c2.292,-0.256 3.985,0.176 6.108,0.863c-5.64,-0.597 -10.092,0.38 -14.627,3.988c-4.762,3.863 -8.102,9.202 -9.495,15.173c-0.423,1.892 -0.567,3.857 -0.787,5.787c0.852,-0.869 1.506,-1.97 2.28,-2.904c3.998,-4.83 11.175,-8.349 17.441,-6.749c-0.296,0.038 -0.62,0.058 -0.92,0.083c-9.864,0.645 -16.404,6.75 -19.819,15.711c-0.084,-0.534 -0.153,-1.071 -0.205,-1.609c-0.312,-2.962 -0.221,-5.566 0.205,-8.513c1.505,-10.399 8.701,-20.692 19.818,-21.83Z" style="fill:#535353;fill-rule:nonzero;"/><path d="M107.292,78.786c0.358,0.274 1.182,1.693 1.521,2.181c-0.156,0.903 -1.002,2.764 -1.418,3.674c-3.341,7.313 -8.988,14.632 -15.509,19.371l-1.046,0.659c0.193,-0.961 0.104,-1.588 0.024,-2.556c6.118,-5.159 10.804,-10.444 14.203,-17.807c0.991,-2.146 1.518,-3.237 2.225,-5.523Z" style="fill:#535353;fill-rule:nonzero;"/><path d="M60.493,0.419l0.143,0.056c0.578,0.752 3.659,4.875 3.768,5.511c-0.465,0.635 -0.381,1.503 -0.413,2.322c-1.165,-1.73 -2.205,-3.222 -3.448,-4.91c-0.918,1.215 -1.792,2.494 -2.685,3.733c-0.91,1.264 -1.988,2.593 -2.74,3.944c1.003,2.015 3.964,5.94 5.383,7.85c0.32,-0.358 0.593,-0.728 0.883,-1.109c0.439,-0.665 0.592,-0.943 1.151,-1.528c0.005,1.099 0,1.12 0.927,1.692c-1.001,1.272 -1.904,2.686 -2.91,3.997c-1.355,-1.672 -2.714,-3.761 -3.971,-5.541c-1.225,-1.735 -2.554,-3.488 -3.737,-5.232c0.965,-1.748 2.764,-3.983 3.94,-5.652c1.12,-1.592 2.478,-3.68 3.709,-5.134Z" style="fill:#535353;fill-rule:nonzero;"/><path d="M29.768,36.73c0.081,0.077 0.111,0.191 0.098,0.299c-1,8.492 1.065,17.321 5.499,24.608c0.882,1.449 1.893,2.765 2.788,4.192c-0.328,0.268 -1.148,1.04 -1.531,0.971c-5.156,-6.598 -8.258,-14.567 -8.919,-22.914c-0.098,-1.352 -0.246,-3.878 0.411,-5.072c0.329,-0.597 1.187,-1.544 1.655,-2.084Z" style="fill:#535353;fill-rule:nonzero;"/><path d="M43.881,31.332c0.282,0.002 0.563,0.009 0.845,0.022c0.334,0.019 1.45,0.133 1.645,0.35c-0.371,0.175 -0.955,0.195 -1.372,0.228c-1.852,0.149 -3.007,0.497 -4.494,1.684c-5.868,4.685 -5.268,15.411 -3.069,21.814c0.336,0.983 0.731,1.945 1.182,2.881c0.475,0.973 1.523,2.693 1.407,3.717l-0.012,0.097c-0.022,0.393 0.02,0.723 -0.206,1.013c-0.929,-0.04 -3.073,-4.927 -3.475,-5.825c-3.015,-6.73 -3.273,-16.7 1.461,-22.709c1.381,-1.753 3.858,-3.103 6.089,-3.273Z" style="fill:#535353;fill-rule:nonzero;"/><path d="M5.406,93.478c0.789,0.143 1.989,0.5 2.713,0.605c3.642,0.528 3.956,1.649 6.232,4.297c0.217,2.914 1.619,2.102 -0.018,5.446c-0.088,0.189 -0.33,0.671 -0.578,0.49c-0.949,-0.696 -3.475,-1.917 -4.169,-2.76c-1.459,-1.773 -2.785,-4.807 -3.955,-6.854c-0.276,-0.484 -0.389,-0.754 -0.225,-1.224Zm8.933,8.247c-0.429,-1.026 -0.776,-2.236 -1.25,-3.157c-0.317,-0.615 -1.119,-1.379 -1.512,-2.095c-0.22,-0.116 -0.379,-0.168 -0.614,-0.251c-0.987,-0.473 -1.657,-0.71 -2.685,-1.063c-0.391,-0.105 -0.935,-0.308 -1.296,-0.241l-0.077,0.115c0.337,1.597 2.068,4.561 2.886,6.092c0.241,0.452 3.221,1.786 3.979,2.416c0.242,-0.63 0.462,-1.141 0.568,-1.816Z" style="fill:#535353;fill-rule:nonzero;"/><path d="M8.28,95.16c0.374,0.009 0.865,0.035 1.199,-0.157c0.134,-0.077 0.112,-0.082 0.267,-0.116c0.876,0.374 1.284,0.811 1.833,1.587c-0.22,-0.116 -0.379,-0.168 -0.614,-0.251c-0.987,-0.473 -1.657,-0.71 -2.685,-1.063Z" style="fill:#535353;fill-rule:nonzero;"/><path d="M9.745,94.887c0.876,0.374 1.284,0.811 1.833,1.587c-0.22,-0.116 -0.379,-0.168 -0.614,-0.251c-0.261,-0.47 -0.814,-0.853 -1.219,-1.335Z" style="fill:#535353;fill-rule:nonzero;"/><path d="M11.228,67.827c0.159,0.169 0.215,0.376 0.24,0.61c0.253,2.384 0.736,4.569 1.298,6.893c0.914,3.78 2.293,7.092 4.011,10.555c-0.417,1.001 -0.507,0.893 -0.749,2.056c-0.17,0.817 0.034,2.464 -0.2,2.945l-0.106,-0.017l-0.124,-0.315c-0.085,-0.669 -0.093,-1.601 -0.291,-2.235c-0.579,-1.851 -1.613,-3.576 -2.348,-5.416c-1.809,-4.527 -3.284,-9.091 -3.515,-13.989c0.492,-0.233 1.3,-0.781 1.784,-1.089Z" style="fill:#535353;fill-rule:nonzero;"/><path d="M49.23,64.307c-0.095,-1.565 0.217,-3.128 0.906,-4.537c1.086,-2.229 3.014,-3.935 5.359,-4.741c3.82,-1.33 8.469,-0.007 9.868,4.064c0.812,2.364 -0.091,5.224 -2.611,6.035c0.727,-0.833 1.358,-1.169 1.609,-2.311c0.647,-2.934 -1.221,-5.462 -4.087,-6.098c-2.265,-0.527 -4.306,0.1 -6.24,1.291c-2.2,1.355 -3.401,3.388 -3.974,5.868c-0.338,0.336 -0.323,1.048 -0.51,1.078c-0.285,-0.247 -0.171,-0.356 -0.321,-0.648Z" style="fill:#535353;fill-rule:nonzero;"/><path d="M4.11,73.917c0.807,0.233 0.838,2.189 1.078,2.98c1.245,4.102 2.581,8.548 4.726,12.261c0.195,0.337 2.108,1.459 2.771,2.19c0.385,-0.2 0.93,-0.595 1.324,-0.699c0.566,-0.15 1.368,0.474 1.458,1.037l-0.116,0.085c-0.331,-0.046 -0.499,-0.229 -0.768,-0.441c-0.568,0.087 -1.646,0.743 -2.295,1.028c-1.879,-1.689 -2.533,-1.951 -4.732,-2.965c-1.788,-2.607 -3.904,-9.129 -4.58,-12.431c-0.075,-0.368 0.815,-2.703 1.133,-3.046Z" style="fill:#535353;fill-rule:nonzero;"/><path d="M92.557,113.032c0.828,-0.049 1.613,0.622 2.331,0.953c0.376,0.174 0.816,0.145 0.835,0.6c-0.456,0.759 -1.027,1.199 -1.51,1.884c-0.329,0.466 -1.111,1.853 -1.556,2.127c-1.365,0.841 -3.553,1.264 -5.078,1.914c-0.818,0.27 -3.308,1.591 -2.753,-0.976c0.195,-0.267 0.866,-0.866 1.097,-1.04c2.298,-1.726 3.929,-4.435 6.634,-5.463Zm-1.313,1.246c-2.054,2.261 -3.416,3.605 -5.785,5.569l1.492,-0.467c1.539,-0.441 3.19,-0.846 4.685,-1.387c1.279,-0.463 2.162,-2.252 2.992,-3.305c-0.726,-0.344 -1.228,-0.743 -1.734,-0.987c-0.62,0.251 -0.996,0.401 -1.65,0.578Z" style="fill:#535353;fill-rule:nonzero;"/><path d="M70.828,81.89c0.393,0.237 0.779,1.405 0.927,1.851c-3.392,4.796 -8.299,8.705 -13.467,11.422c-0.746,0.392 -1.316,0.607 -2.156,0.638c-0.426,-0.164 -0.729,-0.317 -0.918,-0.757c0.039,-0.606 0.715,-0.868 1.228,-1.111c6.035,-2.857 10.419,-6.733 14.386,-12.043Z" style="fill:#535353;fill-rule:nonzero;"/><path d="M120.345,41.39l0.053,0.024c0.695,0.316 2.004,2.553 2.259,3.328c0.06,0.183 0.08,1.252 0.145,1.618l0.019,0.106c-1.173,1.12 -2.88,2.325 -4.21,3.256c-0.643,0.38 -0.979,0.561 -1.671,0.865c0.392,-3.554 1.554,-6.171 3.405,-9.196Zm-1.161,6.816c0.914,-0.801 1.861,-1.561 2.84,-2.281c0.03,-0.641 0.027,-0.905 -0.234,-1.507c-0.214,-0.493 -0.86,-1.956 -1.386,-2.119c-0.684,1.554 -2.72,4.957 -2.299,6.425l0.159,0.122c0.375,-0.055 0.628,-0.367 0.92,-0.641Z" style="fill:#535353;fill-rule:nonzero;"/><path d="M0.073,29.996c1.081,0.461 2.89,2.51 3.282,3.627c0.484,1.379 1.403,3.999 1.22,5.404c-1.218,-0.1 -3.471,-2.003 -4.478,-2.807c-0.01,-1.674 -0.197,-4.655 -0.024,-6.224Zm0.772,5.599c0.862,0.83 1.741,1.643 2.636,2.438c0.149,-2.72 -0.351,-4.758 -2.6,-6.417c-0.152,0.669 -0.086,3.187 -0.036,3.979Z" style="fill:#535353;fill-rule:nonzero;"/><path d="M65.444,7.144c0.359,0.472 0.684,0.944 1.021,1.43c0.192,0.285 0.385,0.558 0.552,0.859c0.538,0.632 0.733,1.067 1.111,1.8c-0.205,0.353 -0.443,0.685 -0.689,1.012c-1.151,1.53 -2.146,3.197 -3.299,4.721c-0.606,0.049 -0.412,-2.007 -0.397,-2.414c1.616,-2.429 3.062,-2.595 1.158,-5.141c0.448,-0.975 0.458,-1.213 0.545,-2.266Z" style="fill:#535353;fill-rule:nonzero;"/><path d="M66.465,8.574c0.192,0.285 0.385,0.558 0.552,0.859c-0.103,0.097 -0.195,0.188 -0.275,0.305c-0.273,0.04 -0.198,0.071 -0.391,-0.044c-0.059,-0.423 0.084,-0.539 0.111,-1.04l0.004,-0.079Z" style="fill:#535353;fill-rule:nonzero;"/><path d="M113.771,93.28c1.203,0.096 2.037,2.59 2.374,3.63c-0.379,1.086 -1.339,2.519 -1.971,3.497c-0.065,0.115 -0.065,0.087 -0.189,0.172c-0.123,-0.24 -0.034,-0.178 -0.226,-0.256c-0.242,0.152 -0.35,0.505 -0.477,0.785c-0.142,-1.226 -0.286,-3.728 -0.233,-4.935c0.014,-0.338 0.596,-2.429 0.722,-2.893Zm-0.293,3.764c0.31,0.847 0.495,1.335 0.623,2.243l0.456,-0.545c0.406,-0.604 0.833,-1.197 1.139,-1.856c-0.245,-0.445 -1.145,-2.163 -1.488,-2.422c-0.217,0.868 -0.46,1.728 -0.73,2.58Z" style="fill:#535353;fill-rule:nonzero;"/><path d="M60.502,5.939c0.448,0.231 1.883,2.377 1.888,2.979c-0.146,0.254 -0.056,0.173 -0.395,0.272c-0.934,-0.223 -0.64,-1.393 -1.475,-1.418c-0.592,0.302 -2.152,2.804 -2.436,3.472c0.697,1.257 1.588,2.391 2.455,3.536l0.951,-1.287c0.137,-0.163 0.049,-0.106 0.29,-0.141c0.31,0.171 0.21,0.073 0.39,0.364c0.038,0.481 -1.21,2.093 -1.564,2.609c-1.255,-1.332 -2.615,-3.549 -3.647,-5.134c0.974,-1.726 2.364,-3.638 3.544,-5.25Z" style="fill:#535353;fill-rule:nonzero;"/><path d="M93.555,38.5l0.282,0.04c0.092,0.086 0.15,0.107 0.177,0.236c0.182,0.893 -3.343,7.385 -4.075,8.487c-0.003,-1.179 0.103,-1.6 0.382,-2.72c0.256,-0.762 1.15,-2.613 1.183,-3.153c-0.257,-0.495 -1.737,-0.031 -2.321,-0.177c-0.433,-0.108 -0.666,-0.163 -1.101,-0.33c1.51,-0.723 3.925,-1.759 5.473,-2.383Z" style="fill:#535353;fill-rule:nonzero;"/><path d="M98.303,8.996c0.609,0.099 3.315,1.361 3.468,1.949c-0.244,0.511 -2.995,1.442 -3.674,1.7c-1.106,0.371 -2.175,-0.022 -3.324,-0.283c1.161,-1.134 2.37,-2.212 3.53,-3.367Zm0.231,2.475c0.635,-0.228 1.318,-0.454 1.926,-0.738c-0.566,-0.333 -1.41,-0.866 -1.971,-1.157c-0.394,0.436 -1.425,1.389 -1.451,1.859c0.32,0.398 1.038,0.142 1.495,0.036Z" style="fill:#535353;fill-rule:nonzero;"/><path d="M96.78,46.531c0.719,0.171 1.387,0.789 1.908,1.288c-0.818,2.443 -1.468,2.461 -3.851,2.998c-0.494,0.122 -1.78,0.418 -1.614,-0.402c0.27,-1.336 2.599,-3.096 3.557,-3.884Z" style="fill:#535353;fill-rule:nonzero;"/><path d="M85.822,92.704c0.58,-0.183 1.212,-0.082 1.707,0.272c0.495,0.354 0.795,0.919 0.811,1.526c0.022,0.87 -0.539,1.647 -1.371,1.901c-1.02,0.311 -2.099,-0.261 -2.414,-1.279c-0.316,-1.018 0.251,-2.101 1.268,-2.42Z" style="fill:#535353;fill-rule:nonzero;"/><path d="M25.221,57.857c0.585,0.056 1.158,0.197 1.702,0.419c1.269,0.517 2.671,2.321 2.099,3.668c-2.172,0.099 -4.426,-1.774 -3.801,-4.087Z" style="fill:#535353;fill-rule:nonzero;"/><path d="M17.313,107.961c0.661,0.089 0.951,0.861 1.676,1.464c0.133,0.733 0.806,3.283 -0.2,3.576l-0.267,-0.152c-0.758,-0.654 -1.677,-1.352 -2.47,-2.003c0.348,-0.815 0.796,-2.179 1.261,-2.885Zm-0.498,2.73c0.412,0.411 0.728,0.738 1.248,1.012l0.495,0.152c0.177,-0.433 -0.466,-2.637 -0.985,-2.904c-0.269,0.588 -0.523,1.137 -0.758,1.741Z" style="fill:#535353;fill-rule:nonzero;"/><path d="M83.404,37.652c1.947,1.469 3.883,5.202 4.271,7.558c-0.054,0.551 0.098,1.436 0.026,1.67l-0.158,0.018c-0.415,-1.352 -0.663,-2.499 -1.365,-3.781c-1.142,-2.087 -1.997,-3.144 -2.774,-5.465Z" style="fill:#535353;fill-rule:nonzero;"/><path d="M49.767,96.051c0.377,-0.049 0.757,0.066 1.044,0.314c0.288,0.248 0.456,0.607 0.464,0.987c0.013,0.657 -0.454,1.226 -1.101,1.343c-0.479,0.086 -0.966,-0.094 -1.273,-0.471c-0.308,-0.376 -0.386,-0.89 -0.207,-1.341c0.18,-0.452 0.591,-0.77 1.073,-0.831Z" style="fill:#535353;fill-rule:nonzero;"/><path d="M49.125,26.143c0.697,-0.127 1.366,0.335 1.495,1.033c0.127,0.698 -0.334,1.367 -1.031,1.496c-0.699,0.129 -1.37,-0.333 -1.499,-1.032c-0.128,-0.699 0.335,-1.37 1.035,-1.497Z" style="fill:#535353;fill-rule:nonzero;"/><path d="M85.629,30.75c0.355,-0.021 0.704,0.108 0.961,0.356c0.256,0.248 0.396,0.593 0.387,0.949c-0.017,0.621 -0.479,1.139 -1.095,1.226c-0.462,0.066 -0.924,-0.128 -1.201,-0.503c-0.278,-0.376 -0.329,-0.873 -0.131,-1.296c0.198,-0.423 0.612,-0.704 1.079,-0.732Z" style="fill:#535353;fill-rule:nonzero;"/><path d="M100.411,61.776c0.694,-0.108 1.344,0.367 1.452,1.06c0.107,0.694 -0.369,1.343 -1.063,1.45c-0.692,0.106 -1.34,-0.369 -1.448,-1.061c-0.107,-0.692 0.367,-1.341 1.059,-1.449Z" style="fill:#535353;fill-rule:nonzero;"/><path d="M20.35,63.362c0.692,-0.07 1.308,0.436 1.374,1.128c0.065,0.692 -0.445,1.305 -1.138,1.366c-0.686,0.06 -1.291,-0.445 -1.356,-1.13c-0.065,-0.685 0.435,-1.294 1.12,-1.364Z" style="fill:#535353;fill-rule:nonzero;"/><path d="M95.81,104.907c0.764,-1.576 0.947,-1.946 2.748,-2.348c-0.511,0.324 -0.867,0.527 -1.406,0.799c-0.306,0.557 -0.86,1.61 -1.22,2.088c-0.559,-0.016 -1.153,-0.044 -1.709,-0.049c-0.603,0.803 -1.04,1.826 -1.666,2.655c-0.251,0.334 -0.583,0.555 -0.597,0.881l-0.172,0.112l-0.144,-0.054l-0.167,-0.457c1.015,-1.122 1.467,-2.251 2.109,-3.608c0.712,0.028 1.341,0.071 2.053,-0.002l0.107,-0.01c0.022,-0.003 0.044,-0.005 0.065,-0.008Z" style="fill:#535353;fill-opacity:0.98;fill-rule:nonzero;"/><path d="M7.755,28.401l0.247,0.085c0.458,0.471 0.829,2.748 0.526,3.338c-0.246,0.124 -0.443,0.067 -0.725,0.037c-1.618,-0.968 -0.947,-2.258 -0.048,-3.46Z" style="fill:#535353;fill-rule:nonzero;"/><path d="M42.303,97.981c0.557,-0.205 1.174,0.08 1.38,0.637c0.205,0.557 -0.08,1.175 -0.637,1.381c-0.557,0.205 -1.175,-0.08 -1.381,-0.637c-0.205,-0.557 0.08,-1.175 0.638,-1.381Z" style="fill:#535353;fill-rule:nonzero;"/><path d="M62.877,9.617c0.583,0.126 1.03,0.997 1.364,1.511l-1.127,1.644c-0.3,-0.009 -0.53,-0.267 -0.78,-0.475l0.786,-1.199c-0.468,-0.645 -0.772,-0.807 -0.242,-1.48Z" style="fill:#535353;fill-rule:nonzero;"/><path d="M26.466,64.959c0.385,0.02 0.631,0.027 0.925,0.299c0.241,0.219 0.372,0.533 0.36,0.858c-0.013,0.455 -0.258,0.796 -0.561,1.107c-0.221,0.232 -0.293,0.376 -0.616,0.332c-0.55,-0.497 -0.276,-1.967 -0.108,-2.595Z" style="fill:#535353;fill-rule:nonzero;"/><path d="M91.216,89.342c0.397,-0.188 0.872,-0.022 1.065,0.374c0.193,0.396 0.031,0.873 -0.363,1.069c-0.258,0.129 -0.566,0.11 -0.806,-0.051c-0.24,-0.161 -0.375,-0.438 -0.353,-0.726c0.021,-0.288 0.195,-0.541 0.457,-0.666Z" style="fill:#535353;fill-rule:nonzero;"/><path d="M97.213,53.978c0.272,-0.135 0.597,-0.105 0.839,0.078c0.242,0.183 0.36,0.488 0.303,0.786c-0.057,0.298 -0.277,0.539 -0.57,0.62c-0.397,0.111 -0.813,-0.098 -0.961,-0.483c-0.148,-0.384 0.02,-0.818 0.389,-1.002Z" style="fill:#535353;fill-rule:nonzero;"/><path d="M22.188,73.502c0.403,-0.134 0.838,0.082 0.975,0.484c0.137,0.402 -0.076,0.839 -0.476,0.979c-0.405,0.142 -0.848,-0.074 -0.986,-0.48c-0.138,-0.406 0.08,-0.847 0.487,-0.983Z" style="fill:#535353;fill-rule:nonzero;"/><path d="M25.338,50.872c0.421,0.019 0.747,0.373 0.731,0.794c-0.016,0.421 -0.369,0.749 -0.79,0.735c-0.424,-0.014 -0.756,-0.37 -0.74,-0.794c0.016,-0.424 0.374,-0.754 0.798,-0.735Z" style="fill:#535353;fill-rule:nonzero;"/><path d="M71.049,26.986c0.259,-0.088 0.547,-0.027 0.748,0.16c0.201,0.187 0.283,0.469 0.215,0.734c-0.07,0.266 -0.278,0.472 -0.545,0.537c-0.388,0.095 -0.782,-0.132 -0.894,-0.516c-0.111,-0.383 0.098,-0.787 0.477,-0.916Z" style="fill:#535353;fill-rule:nonzero;"/><path d="M79.741,95.296c0.24,-0.102 0.516,-0.067 0.723,0.091c0.207,0.158 0.313,0.417 0.277,0.675c-0.036,0.258 -0.209,0.477 -0.451,0.572c-0.368,0.145 -0.785,-0.033 -0.935,-0.398c-0.15,-0.366 0.022,-0.785 0.386,-0.94Z" style="fill:#535353;fill-rule:nonzero;"/><path d="M68.272,99.57c0.866,-0.601 2.276,-1.371 3.217,-1.923l0.311,0.17c-0.01,0.18 -0.041,0.279 -0.085,0.45c-1.316,0.641 -2.045,0.904 -3.443,1.303Z" style="fill:#535353;fill-opacity:0.98;fill-rule:nonzero;"/><path d="M12.861,35.573l0.001,0.075c0.004,0.45 -0.137,0.737 -0.043,1.06l0.144,0.045c-0.19,0.614 0.421,1.5 0.728,2.092c-0.441,-0.44 -0.932,-0.828 -1.414,-1.223c0.244,-0.656 0.371,-1.358 0.583,-2.049Z" style="fill:#535353;fill-opacity:0.95;fill-rule:nonzero;"/><path d="M43.937,8.663c0.148,-0.071 0.158,-0.078 0.317,-0.114c0.412,0.516 1.185,1.188 1.508,1.642c-0.242,0.21 -0.163,0.082 -0.235,0.401c-0.106,-0.214 -1.352,-1.789 -1.59,-1.929Z" style="fill:#535353;fill-opacity:0.82;fill-rule:nonzero;"/><path d="M49.23,64.307c0.15,0.292 0.036,0.402 0.321,0.648c0.187,-0.03 0.172,-0.742 0.51,-1.078c-0.179,1.048 -0.242,1.917 -0.36,2.965c-0.272,-0.942 -0.42,-1.548 -0.471,-2.535Z" style="fill:#535353;fill-opacity:0.91;fill-rule:nonzero;"/><path d="M18.349,52.427c0.268,0.421 0.708,2.032 0.418,2.478c-0.268,-0.268 -0.497,-1.654 -0.622,-2.129l0.204,-0.349Z" style="fill:#535353;fill-opacity:0.87;fill-rule:nonzero;"/><path d="M95.68,62.33l0.155,-0.152c0.044,-0.287 0.041,-0.306 0.184,-0.553c0.267,0.905 0.4,1.973 0.449,2.914c-0.278,-0.731 -0.541,-1.468 -0.788,-2.21Z" style="fill:#535353;fill-opacity:0.96;fill-rule:nonzero;"/><path d="M87.675,45.21c0.269,1.134 0.326,2.131 0.331,3.29c-0.179,-0.407 -0.428,-1.17 -0.464,-1.603l0.158,-0.018c0.072,-0.234 -0.08,-1.119 -0.026,-1.67Z" style="fill:#535353;fill-opacity:0.84;fill-rule:nonzero;"/><path d="M98.665,25.751c0.515,0.019 1.598,0.196 1.941,-0.163c0.103,0.123 0.132,0.172 0.261,0.272c-0.212,0.633 -1.784,0.101 -2.202,-0.109Z" style="fill:#535353;fill-opacity:0.91;fill-rule:nonzero;"/><path d="M102.395,70.288c0.291,0.574 0.548,1.329 0.778,1.943l-0.348,-0.269c-0.02,0.179 -0.036,0.359 -0.047,0.539c-0.232,-0.864 -0.318,-1.321 -0.383,-2.213Z" style="fill:#535353;fill-opacity:0.84;fill-rule:nonzero;"/></g></svg>