<?xml version="1.0" encoding="UTF-8" standalone="no"?><!DOCTYPE svg PUBLIC "-//W3C//DTD SVG 1.1//EN" "http://www.w3.org/Graphics/SVG/1.1/DTD/svg11.dtd"><svg width="100%" height="100%" viewBox="0 0 123 123" version="1.1" xmlns="http://www.w3.org/2000/svg" xmlns:xlink="http://www.w3.org/1999/xlink" xml:space="preserve" xmlns:serif="http://www.serif.com/" style="fill-rule:evenodd;clip-rule:evenodd;stroke-linejoin:round;stroke-miterlimit:2;"><clipPath id="_clip1"><rect x="0" y="0.576" width="122.88" height="121.729"/></clipPath><g clip-path="url(#_clip1)"><g><g><path d="M41.466,56.857l0.125,-0.029c0.909,-0.208 4.93,-0.721 5.571,-0.251c-0.475,1.025 -7.29,2.098 -8.614,2.721c-0.178,0.084 -0.546,0.218 -0.75,0.176c-0.001,-0.369 0.266,-0.697 0.493,-0.985c1.574,-1.999 3.147,-4.006 4.728,-6l8.979,-11.322c2.358,-2.949 4.632,-5.98 7.112,-8.834c0.833,-0.959 1.564,-2.081 2.456,-2.972c1.161,1.17 3.666,4.408 4.663,5.653c0.797,0.995 5.822,6.497 5.971,7.209c-0.139,0.419 -0.327,0.724 -0.59,1.074c-4.671,6.225 -9.795,12.104 -14.597,18.211c-0.502,0.638 2.018,7.74 0.578,9.253c-3.574,3.754 -7.618,7.023 -11.815,10.063c-1.035,0.749 -2.292,1.145 -3.141,2.069c1.374,-0.522 3.225,-1.428 4.646,-1.686c2.268,1.191 4.769,2.298 7.088,3.402c2.166,1.057 4.322,2.137 6.465,3.239c0.6,0.308 2.395,1.13 2.78,1.497c-0.065,0.514 -6.671,6.136 -7.585,6.935c1.29,0.762 2.57,1.542 3.839,2.34c1.189,0.757 2.535,1.673 3.766,2.317c-0.448,1.92 -0.776,3.625 -1.026,5.576c-0.132,1.022 -0.618,1.877 -0.666,3.041c0.744,-2.056 1.478,-3.634 2.51,-5.553c0.407,-0.758 1.31,-2.164 1.517,-2.861c-0.648,-0.833 -4.566,-2.774 -4.564,-3.512c0.541,-0.924 1.555,-2.252 2.206,-3.166l3.85,-5.457c-2.045,-1.178 -17.231,-8.259 -17.803,-8.934c0.702,-0.764 3.39,-2.512 4.335,-3.224l6.427,-4.821c0.844,-0.636 1.733,-1.409 2.578,-1.997c-2.18,-2.066 -3.788,-3.201 -4.029,-6.474c-0.07,-0.95 -0.799,-1.343 -0.041,-2.247c2.023,-2.41 3.933,-4.905 5.909,-7.355c1.86,-2.325 3.753,-4.623 5.678,-6.895c0.778,-0.929 1.863,-2.342 2.658,-3.154c0.2,-0.203 0.41,-0.395 0.629,-0.578c0.525,0.396 3.053,2.399 3.578,3.145c1.931,2.739 5.405,7.632 6.968,10.479c0.216,0.393 -3.981,7.275 -4.352,8.035c-0.147,0.302 -1.671,2.538 -1.721,2.831c1.338,0.81 2.647,1.667 3.924,2.571c0.722,0.513 1.951,1.452 2.676,1.848c-0.399,-0.574 -4.819,-3.914 -5.579,-4.266c0.81,-0.919 1.22,-2.116 1.873,-2.964c1.082,-1.407 2.92,-5.102 4.146,-6.105c0.867,0.652 1.695,1.137 2.566,1.746c4.37,3.053 8.867,5.79 13.074,9.074c0.489,0.434 1.155,0.814 1.715,1.174l0.047,-0.052c-0.431,-0.443 -1.072,-0.827 -1.599,-1.216c-1.61,-1.197 -3.127,-2.601 -4.636,-3.919c-1.058,-0.924 -2.706,-2.143 -3.62,-3.204c0.638,-2.293 1.853,-4.383 2.842,-6.553c0.371,-0.813 0.999,-2.522 1.421,-3.185c1.071,0.91 1.949,2.442 2.832,3.594c3.185,4.098 6.257,8.284 9.212,12.55c0.857,1.24 1.679,2.467 2.488,3.739c0.474,0.745 0.855,0.857 1.03,1.845l-0.086,0.063c-0.742,-0.537 -2.743,-3.078 -3.478,-3.962c-1.85,-2.225 -3.683,-4.465 -5.5,-6.717c-1.851,-2.286 -4.496,-5.65 -6.036,-8.162c-0.751,1.745 -2.075,4.66 -2.668,6.45c1.816,1.446 3.546,3.015 5.336,4.492c2.459,2.029 4.893,3.996 7.12,6.286c0.492,0.506 1.575,1.467 1.978,1.984c-0.422,0.348 -2.907,-0.934 -3.437,-1.174c-1.69,-0.766 -3.421,-1.464 -5.074,-2.303c-1.461,-0.756 -2.846,-1.906 -4.224,-2.805l-11.172,-7.288c-1.229,2.239 -2.458,4.043 -3.789,6.187l0.108,0.117c1.367,1.462 10.243,8.976 10.448,10.38c-0.355,0.139 -0.862,-0.591 -1.154,-0.822c-2.079,-1.644 -4.735,-2.584 -7.032,-3.912c-2.828,-1.635 -5.506,-3.457 -8.24,-5.218c1.02,-1.63 2.343,-3.355 3.116,-5.104c-0.364,-0.727 -1.841,-4.602 -1.888,-5.264c-0.208,-2.923 -0.61,-7.055 -0.545,-9.913c-0.593,-0.51 -1.85,-1.648 -2.388,-2.192c-3.072,3.392 -5.823,6.858 -8.705,10.395l-2.785,3.472c-0.664,0.812 -1.465,1.677 -2.063,2.521c0.513,4.138 1.163,4.674 4.403,7.291c0.189,0.153 0.504,0.317 0.725,0.435c-0.116,0.524 -9.842,7.973 -11.027,8.777c-0.299,0.203 -1.345,0.932 -1.682,1.155l10.781,5.354c1.976,1 4.515,2.419 6.541,3.264c-0.816,1.309 -1.941,2.586 -2.841,3.858c-1.302,1.841 -2.568,3.672 -3.927,5.473c1.696,0.731 3.244,2.131 5.184,2.752c-0.202,0.491 -0.457,0.941 -0.736,1.388c-1.979,3.166 -3.978,6.271 -6.366,9.148c-0.502,0.604 -0.957,1.354 -1.491,1.915c-0.074,-1.876 0.885,-9.334 1.366,-11.109c-1.291,-1.064 -2.583,-1.728 -3.97,-2.617c-1.435,-0.919 -2.84,-1.868 -4.284,-2.783c1.194,-1.06 2.595,-2.203 3.833,-3.235c1.027,-0.855 2.716,-2.462 3.703,-3.182c-1.42,-0.904 -3.246,-1.847 -4.791,-2.549c-3.027,-1.376 -6.138,-3.073 -9.196,-4.33c-2.076,0.4 -4.042,0.915 -6.09,1.399c-0.692,0.164 -3.111,0.723 -3.755,0.713l-0.036,-0.105c0.601,-0.861 4.187,-3.136 5.287,-3.9c2.566,-1.779 12.722,-9.284 13.835,-11.46c0.357,-0.698 0.273,-1.661 0.143,-2.416c-0.319,-1.844 -0.924,-3.665 -1.277,-5.513c1.493,-2.042 3.186,-3.98 4.796,-5.931c0.841,-1.02 1.601,-2.105 2.45,-3.109c-0.647,-0.954 -0.742,-1.406 -1.047,-2.536c-1.123,1.32 -3.031,2.427 -4.33,3.605c-1.869,1.696 -3.798,3.332 -5.705,4.979c-1.409,1.216 -2.34,2.501 -3.181,4.143c-0.263,0.498 -0.935,2.081 -1.342,2.388c-1.939,1.456 -4.45,2.914 -6.514,4.253c-0.709,0.46 -2.699,1.327 -3.554,1.756c-2.188,1.099 -4.461,2.159 -6.705,3.109c-0.794,0.336 -2.203,0.976 -2.997,1.149c1.198,-1.559 6.6,-4.791 8.529,-6.144c2.43,-1.704 4.866,-3.65 7.115,-5.616c1.284,-1.123 1.634,-2.612 2.517,-3.72c-0.929,0.321 -8.166,2.614 -8.343,2.773c-4.965,4.428 -9.356,9.753 -15.239,13.06c-0.676,0.38 -1.884,1.449 -2.491,1.656l-0.057,-0.092c0.313,-0.664 0.935,-1.299 1.395,-1.874c3.167,-3.967 6.221,-8.266 9.484,-12.146c-0.641,-1.353 -1.296,-2.698 -1.965,-4.037c-0.503,-0.993 -2.06,-3.816 -2.227,-4.749c-0.809,1.683 -14.167,19.738 -15.164,20.177c-0.104,-0.132 -0.092,-0.067 -0.07,-0.237c0.281,-2.159 10.867,-16.561 12.857,-19.339c0.446,-0.622 2.157,-3.339 2.609,-3.653c0.092,-0.064 0.104,-0.062 0.197,-0.091c0.52,0.53 5.741,11.028 5.921,11.797c-0.4,0.906 -1.511,1.813 -1.94,2.448c-0.422,0.626 -5.008,5.923 -4.991,6.178c0.486,-0.186 1.563,-1.557 1.99,-1.982c2.169,-2.163 4.418,-4.244 6.59,-6.402c0.719,-0.714 1.386,-1.62 2.194,-2.223c1.382,-1.033 8.178,-2.439 10.431,-3.421c0.547,-0.238 1.069,-0.663 1.527,-1.04c1.437,-1.182 11.982,-10.579 12.51,-11.625c0.372,-0.736 1.127,-7.177 1.192,-8.286c0.09,-1.534 0.075,-3.085 0.057,-4.621c-3.498,3.988 -7.266,8.855 -10.59,13.034l-9.301,11.499Zm23.223,-7.687c0.785,-0.941 1.554,-1.969 2.327,-2.936c0.873,-0.796 2.209,-2.785 3.163,-3.829c-0.615,-0.742 -4.927,-6.047 -5.391,-6.295c0.272,2.641 -0.019,6.277 -0.146,8.941c-0.066,1.363 0.201,2.648 0.049,4.118Zm-2.46,-3.496c-0.822,0.986 -2.501,2.431 -3.488,3.354c-2.653,2.525 -5.375,4.976 -8.164,7.35c-0.959,0.829 -2.251,1.729 -3.081,2.611c-1.454,1.546 -1.754,3.688 -3.258,5.353c-0.926,1.025 -3.189,2.241 -3.854,3.063c-0.386,0.203 -0.673,0.308 -0.939,0.649l0.078,0.056c0.382,-0.161 0.556,-0.305 0.892,-0.544c1.601,-1.189 5.022,-3.192 5.709,-4.928c1.355,-3.423 2.234,-3.636 4.921,-6.005l6.486,-5.652c1.08,-0.932 2.374,-1.928 3.34,-2.954c0.214,-0.227 0.306,-0.601 0.383,-0.903c1.214,1.772 1.285,3.113 2.191,4.473c-0.085,-0.768 -0.365,-1.742 -0.495,-2.544c-0.286,-1.875 -0.345,-3.777 -0.176,-5.666c0.133,-0.67 0.087,-2.231 0.081,-2.969c0.228,-0.948 0.391,-5.648 0.149,-6.357c-0.271,0.597 -0.079,3.013 -0.122,3.812c-0.033,0.612 -0.081,1.183 -0.155,1.813c-0.028,0.429 -0.084,1.418 -0.032,1.835c-0.152,1.157 -0.267,3.18 -0.468,4.155Zm19.378,13.106c0.324,-0.598 0.66,-1.189 1.008,-1.773c-0.5,-0.787 -2.015,-3.371 -2.653,-3.802l0.014,0.075c0.16,0.797 0.55,1.845 0.656,2.58c0.207,1.433 0.23,2.52 0.594,3.952c0.098,-0.301 0.225,-0.78 0.381,-1.032Zm-3.29,-6.434c0.252,1.039 0.06,2.938 0.233,3.94c0.106,0.363 0.085,0.71 0.175,1.049c0.322,1.214 0.73,2.597 1.312,3.706c-0.117,-1.034 -0.551,-2.103 -0.831,-3.119c-0.207,-0.751 -0.356,-1.421 -0.518,-2.185c0.028,-1.305 -0.106,-2.002 -0.196,-3.23c0.028,-0.5 -0.046,-1.91 -0.357,-2.3c-0.124,0.416 0.113,1.632 0.182,2.139Z" style="fill:#649901;fill-rule:nonzero;"/><path d="M62.73,39.684c0.073,-0.63 0.122,-1.202 0.155,-1.813c0.043,-0.799 -0.149,-3.215 0.122,-3.812c0.242,0.709 0.08,5.409 -0.149,6.357l-0.128,-0.731Z" style="fill:#649901;fill-rule:nonzero;"/><path d="M78.689,55.736c0.162,0.764 0.311,1.434 0.518,2.185c0.28,1.016 0.714,2.085 0.831,3.119c-0.581,-1.109 -0.99,-2.492 -1.312,-3.706c-0.09,-0.339 -0.069,-0.686 -0.175,-1.049l0.138,-0.549Z" style="fill:#649901;fill-rule:nonzero;"/><path d="M78.318,52.345l0.176,0.161c0.09,1.228 0.224,1.925 0.196,3.23l-0.138,0.549c-0.173,-1.003 0.019,-2.902 -0.233,-3.94Z" style="fill:#649901;fill-rule:nonzero;"/><path d="M78.318,52.345c-0.068,-0.507 -0.306,-1.723 -0.182,-2.139c0.311,0.391 0.385,1.801 0.357,2.3l-0.176,-0.161Z" style="fill:#649901;fill-rule:nonzero;"/><path d="M62.73,39.684l0.128,0.731c0.006,0.738 0.052,2.3 -0.081,2.969c-0.059,-0.68 0.095,-1.191 -0.079,-1.866c-0.052,-0.417 0.004,-1.405 0.032,-1.835Z" style="fill:#649901;fill-rule:nonzero;"/><path d="M40.417,67.564c-0.337,0.239 -0.511,0.383 -0.892,0.544l-0.078,-0.056c0.266,-0.341 0.553,-0.445 0.939,-0.649l0.031,0.161Z" style="fill:#649901;fill-rule:nonzero;"/><path d="M61.497,24.411c0.341,0.1 0.62,0.308 0.845,0.579c1.456,1.748 2.943,3.478 4.4,5.225c0.784,0.94 1.486,1.974 2.287,2.896c1.231,1.417 2.408,2.867 3.598,4.317c0.725,0.889 1.818,1.915 2.393,2.866c0.926,-0.02 1.36,-0.007 2.277,0.117c0.58,0.628 1.033,1.301 1.494,2.018c2.234,3.519 4.372,7.074 6.674,10.55c1.838,2.777 1.987,3.684 4.873,5.451c0.576,-0.767 1.617,-2.841 2.151,-3.73c1.595,-2.655 3.053,-5.533 4.612,-8.18c1.606,2.454 4.076,5.278 5.784,7.746c1.745,2.63 3.908,5.106 5.661,7.712c4.531,6.737 9.776,13.062 14.309,19.779c-2.38,-0.087 -5.169,-0.022 -7.576,-0.016l-14.515,0.056l-23.56,0.036c-1.813,0.02 -3.621,-0.024 -5.437,0.018c0.862,-0.844 1.258,-0.989 2.068,-1.99c1.412,-0.11 3.425,-0.037 4.873,-0.031l8.059,-0.002c10.676,-0.016 21.737,0.159 32.371,-0.05c-2.804,-3.706 -5.459,-7.495 -8.177,-11.263l-6.063,-8.253c-1.334,-1.831 -2.678,-3.655 -4.032,-5.472c-1.243,-1.638 -2.539,-3.249 -3.68,-4.959c-1.627,3.522 -4.22,7.451 -6.099,10.969c-4.431,-2.36 -4.197,-2.492 -6.885,-6.596l-5.632,-8.69c-0.719,-1.098 -1.491,-2.41 -2.254,-3.444c-0.854,-0.121 -1.564,-0.235 -2.409,-0.411c-0.765,-0.74 -1.788,-2.135 -2.549,-3.003c-2.323,-2.651 -5.016,-5.606 -7.133,-8.411c-0.648,-0.895 -1.942,-2.288 -2.698,-3.149c-0.576,0.856 -1.932,2.426 -2.635,3.297l-5.06,6.338c-5.926,7.565 -12.047,15.079 -18.145,22.508c-0.493,0.601 -1.978,2.336 -2.636,2.647c-0.286,-0.395 -0.85,-1.546 -1.109,-2.044c-0.789,-1.506 -1.561,-3.02 -2.319,-4.542c-1.032,-2.039 -2.561,-4.694 -3.419,-6.724c-0.567,0.934 -1.594,2.245 -2.251,3.154c-1.357,1.911 -2.742,3.802 -4.156,5.671c-2.359,3.173 -4.676,6.376 -6.952,9.609c-2.461,3.444 -4.781,6.965 -7.232,10.415c-0.546,0.77 -1.164,1.749 -1.826,2.398c1.669,-0.129 4.717,-0.012 6.493,-0.001l11.667,0.017l11.846,-0.021c1.67,-0.004 4.951,-0.097 6.479,0.065c-0.502,0.433 -2.113,1.723 -2.726,1.803c-1.681,0.218 -3.726,0.007 -5.457,0.077c-3.77,0.153 -7.555,0.036 -11.317,0.022c-5.257,0.033 -10.515,-0.012 -15.771,-0.136c-1.631,-0.031 -3.276,0.13 -5,0.083c1.051,-0.837 4.923,-6.79 5.877,-8.143c5.314,-7.667 10.767,-15.237 16.358,-22.705c1.328,-1.803 2.602,-3.605 3.827,-5.48c0.113,-0.172 0.249,-0.339 0.45,-0.398c0.397,0.222 6.703,13.051 7.097,14.377c0.497,-0.915 2.058,-2.679 2.796,-3.602l6.614,-8.255c4.772,-6.129 9.632,-12.189 14.58,-18.177c1.234,-1.484 2.673,-3.703 3.898,-4.94Z" style="fill:#649901;fill-rule:nonzero;"/><path d="M23.133,82.632c0.623,0.094 2.81,0.454 3.157,0.791c2.467,2.392 4.788,5.041 7.232,7.461c6.773,6.789 13.477,13.647 20.111,20.572c2.604,2.711 5.699,5.636 8.189,8.403c0.922,-1.128 2.198,-2.413 3.217,-3.488c1.665,-1.789 3.356,-3.555 5.071,-5.297l12.908,-13.282c4.557,-4.72 8.998,-9.606 13.595,-14.29c0.55,-0.56 2.649,-0.643 3.413,-0.575c-0.336,0.383 -0.815,0.757 -1.208,1.139c-0.894,1.035 -2.478,2.478 -3.484,3.528l-9.567,9.869l-17.321,17.937c-2.111,2.176 -4.311,4.597 -6.459,6.714c-0.219,0.009 -0.257,0.029 -0.446,-0.148c-2.904,-2.739 -5.629,-5.708 -8.436,-8.54l-23.09,-23.431l-4.273,-4.342c-0.592,-0.597 -2.497,-2.33 -2.612,-3.02Z" style="fill:#649901;fill-rule:nonzero;"/><path d="M28.11,82.713c1.669,0.175 2.93,1.756 4.08,2.888l4.065,4c6.648,6.436 13.172,13 19.568,19.687l3.499,3.641c0.742,0.783 1.542,1.718 2.363,2.381c1.395,-1.584 3.543,-3.718 5.027,-5.263l11.682,-11.989c1.064,-1.098 2.064,-2.267 3.127,-3.378c2.025,-2.088 4.068,-4.159 6.128,-6.212c1.035,-1.042 5.554,-5.8 6.76,-5.563c0.017,0.388 -0.656,0.87 -1.012,1.328l-0.072,0.093c-1.503,1.928 -3.2,3.593 -4.842,5.373c-3.035,3.289 -6.194,6.464 -9.289,9.692l-11.884,12.431c-1.751,1.837 -3.852,4.153 -5.623,5.892c-1.269,-1.39 -2.778,-2.813 -4.107,-4.176l-6.604,-6.858l-8.03,-8.272c-1.051,-1.096 -2.084,-2.305 -3.159,-3.367c-2.939,-2.901 -5.77,-5.82 -8.57,-8.863c-0.873,-0.949 -2.173,-2.128 -3.034,-3.153c-0.024,-0.104 -0.049,-0.209 -0.073,-0.313Z" style="fill:#649901;fill-rule:nonzero;"/><path d="M61.578,0.576c0.707,0.165 5.416,6.83 6.235,7.865c-0.574,1.23 -4.958,6.705 -6.033,8.054c-0.052,0.008 -0.18,-0.008 -0.239,-0.014c-1.062,-1.054 -1.9,-2.338 -2.794,-3.55c-1.018,-1.381 -2.468,-2.948 -3.204,-4.47c0.351,-0.581 0.846,-1.225 1.277,-1.756c1.625,-2.002 3.122,-4.141 4.759,-6.129Zm-4.04,7.961c0.749,1.53 3.062,3.782 3.974,5.312c0.169,-0.021 0.11,0.013 0.195,-0.055c0.859,-1.056 1.7,-2.127 2.523,-3.212c0.46,-0.596 1.223,-1.521 1.586,-2.149c-0.975,-1.26 -1.93,-2.539 -2.922,-3.787c-0.442,-0.557 -0.897,-1.3 -1.362,-1.815c-0.328,1.197 -3.128,4.254 -3.994,5.706Z" style="fill:#649901;fill-rule:nonzero;"/><path d="M61.651,5.538c0.384,0.352 1.429,1.944 1.537,2.556c0.14,0.795 -1.073,2.677 -1.554,3.283c-0.536,-1.005 -1.273,-1.969 -1.86,-3.039c0.521,-0.864 1.226,-2.06 1.877,-2.8Z" style="fill:#649901;fill-rule:nonzero;"/><path d="M67.842,11.48c0.036,0.018 0.073,0.035 0.108,0.055c0.304,0.175 22.509,32.158 22.616,32.765c0.025,0.142 -0.043,0.162 -0.127,0.26c-0.362,0.1 -0.687,-0.013 -1.068,-0.091c-1.46,-1.008 -5.666,-7.287 -6.857,-8.969l-10.272,-14.698c-1.625,-2.325 -3.339,-4.574 -4.922,-6.929c-0.332,-0.494 -0.61,-0.841 -0.858,-1.392c0.361,-0.339 0.945,-0.775 1.379,-1Z" style="fill:#649901;fill-rule:nonzero;"/><path d="M55.463,11.835c0.71,0.432 0.84,0.611 1.363,1.235c-1.942,2.748 -3.96,5.479 -5.873,8.222l-10.791,15.565c-1.291,1.883 -2.617,3.742 -3.976,5.576c-0.496,0.671 -1.623,2.348 -2.238,2.683c-0.303,0.052 -1.071,0.044 -1.411,0.05c6.448,-10.499 14.266,-20.686 21.152,-30.925c0.504,-0.749 1.183,-1.743 1.774,-2.405Z" style="fill:#649901;fill-rule:nonzero;"/><path d="M57.782,14.174c0.403,0.291 0.757,0.711 1.075,1.091c-0.598,1.325 -1.421,2.302 -2.246,3.489c-1.418,2.056 -2.866,4.09 -4.346,6.102c-3.994,5.474 -7.347,10.402 -11.757,15.638c-0.237,0.297 -0.089,0.216 -0.445,0.274l-0.02,-0.071l-0.051,0.113c-0.005,-0.025 -0.012,-0.049 -0.014,-0.075c-0.066,-1.411 12.111,-18.502 14.034,-21.255c1.109,-1.588 2.42,-4.016 3.769,-5.307Z" style="fill:#649901;fill-rule:nonzero;"/><path d="M65.445,13.892c0.335,0.136 3.288,4.603 3.693,5.169l5.614,7.984c2.762,3.899 5.505,7.716 7.999,11.805c0.28,0.459 0.734,1.008 0.616,1.57l-0.137,-0.003l-0.263,-0.278c-0.663,-0.799 -1.266,-1.612 -1.966,-2.389c-2.032,-2.255 -3.758,-4.743 -5.561,-7.184l-5.118,-6.907c-1.803,-2.476 -4.124,-5.962 -5.992,-8.262c0.353,-0.527 0.673,-1.049 1.115,-1.505Z" style="fill:#649901;fill-rule:nonzero;"/><path d="M64.54,90.433c0.083,0.075 0.032,0.019 0.113,0.199c-0.295,0.984 -3.709,5.795 -4.589,6.615c-0.45,-0.349 -0.779,-0.543 -1.266,-0.836l-1.164,-0.634c1.092,-0.694 2.625,-1.967 3.698,-2.767c0.77,-0.574 2.62,-1.947 3.208,-2.577Z" style="fill:#649901;fill-rule:nonzero;"/><path d="M59.126,67.549c0.361,0.075 0.696,0.68 0.985,0.949c0.473,0.44 1.261,0.793 1.3,1.505c-0.159,0.531 -1.285,1.186 -1.851,1.666c-0.403,0.273 -1.111,0.928 -1.525,1.276c0.58,-1.473 0.458,-3.42 1.092,-5.395Z" style="fill:#649901;fill-rule:nonzero;"/><path d="M101.117,69.625c0.527,0.389 1.168,0.773 1.599,1.216l-0.047,0.052c-0.56,-0.36 -1.226,-0.74 -1.715,-1.174l0.163,-0.094Z" style="fill:#649901;fill-rule:nonzero;"/></g></g></g></svg>